<svg width="1254" height="678" viewBox="0 0 1254 678" fill="none" xmlns="http://www.w3.org/2000/svg">
<path d="M339.777 459.043C339.21 457.907 338.343 456.941 337.269 456.248C336.195 455.555 334.954 455.161 333.68 455.107L209.409 450.383C204.001 450.189 197.931 448.451 192.142 445.727C184.054 441.96 176.568 436.189 171.925 430.946C170.496 429.378 169.238 427.666 168.173 425.84C168.701 425.831 169.346 425.852 170.045 425.898L283.069 430.201L294.342 442.701L302.445 425.479C303.044 424.261 303.355 422.921 303.354 421.559C303.353 420.197 303.041 418.848 302.44 417.613C301.876 416.48 301.013 415.516 299.942 414.825C298.872 414.133 297.635 413.74 296.365 413.688L172.094 408.963C168.305 408.723 164.828 408.988 161.448 410.16C157.545 411.495 154.359 414.312 152.59 417.994C152.54 418.099 152.488 418.293 152.488 418.293L79.5738 573.255L79.4534 573.455C79.4336 573.497 79.4558 573.533 79.436 573.575L79.3568 573.744L79.3783 573.754C77.0434 579.273 78.2072 584.035 79.7176 587.727C84.6743 598.899 96.8131 609.558 111.659 616.8C118.735 620.13 126.413 622.458 134.377 622.787L258.685 627.516C261.963 627.645 265.105 625.616 266.635 622.365L339.782 466.909C340.376 465.689 340.684 464.349 340.683 462.988C340.682 461.627 340.373 460.279 339.777 459.043ZM287.95 398.678C288.857 396.278 288.921 393.61 287.807 391.467C287.24 390.331 286.373 389.365 285.299 388.672C284.225 387.979 282.985 387.585 281.711 387.532L157.45 382.786C152.046 382.582 145.96 380.849 140.182 378.13C132.099 374.353 124.614 368.582 119.975 363.328C118.539 361.772 117.277 360.066 116.213 358.243C116.741 358.235 117.386 358.255 118.085 358.301L231.12 362.609L242.393 375.109L250.486 357.908C251.083 356.689 251.392 355.347 251.389 353.984C251.387 352.621 251.073 351.272 250.471 350.037C249.904 348.904 249.039 347.939 247.967 347.247C246.895 346.554 245.656 346.161 244.385 346.107L120.109 341.393C116.32 341.152 112.858 341.412 109.463 342.59C105.563 343.928 102.381 346.746 100.615 350.428C100.556 350.555 100.509 350.738 100.509 350.738L27.3615 506.194L27.383 506.205C25.0481 511.723 26.2119 516.486 27.7223 520.177C32.679 531.35 44.8227 541.998 59.6795 549.246C63.7521 551.133 68.0029 552.608 72.3659 553.647L139.039 411.951C142.396 404.537 148.725 398.88 156.395 396.27C161.686 394.511 167.302 393.847 172.895 394.32L287.95 398.678Z" fill="#9654D8"/>
<path d="M69.2948 219.207C69.5316 217.96 70.1029 216.794 70.9475 215.834C71.7921 214.875 72.8782 214.158 74.0894 213.76L192.377 175.371C197.528 173.712 202.896 170.387 207.724 166.189C214.48 160.362 220.111 152.771 223.151 146.461C224.1 144.564 224.844 142.574 225.371 140.526C224.861 140.662 224.246 140.858 223.586 141.092L116.005 176.012L108.563 191.109L96.0758 176.745C95.1676 175.736 94.5037 174.531 94.1335 173.22C93.7634 171.91 93.6966 170.527 93.9381 169.175C94.1723 167.932 94.7408 166.769 95.5824 165.812C96.4241 164.855 97.507 164.14 98.7149 163.744L217.002 125.356C220.582 124.092 224 123.401 227.572 123.608C231.691 123.829 235.523 125.672 238.229 128.733C238.305 128.821 238.408 128.993 238.408 128.993L350.767 258.242L350.937 258.402C350.968 258.437 350.956 258.478 350.987 258.513L351.109 258.653L351.091 258.669C354.84 263.343 355.017 268.242 354.569 272.206C352.843 284.306 344.065 297.867 331.753 308.879C325.851 314.01 319.097 318.34 311.524 320.826L193.202 359.229C190.083 360.246 186.507 359.149 184.15 356.437L71.4325 226.776C70.5287 225.765 69.8676 224.56 69.4976 223.25C69.1277 221.94 69.0584 220.558 69.2948 219.207ZM102.724 147.01C101.198 144.947 100.41 142.397 100.898 140.032C101.134 138.785 101.706 137.619 102.55 136.66C103.395 135.7 104.481 134.983 105.692 134.585L223.964 96.1793C229.108 94.5114 234.492 91.1869 239.312 86.997C246.06 81.1611 251.691 73.5699 254.724 67.2518C255.682 65.3629 256.432 63.3785 256.959 61.3344C256.448 61.4699 255.833 61.6655 255.174 61.9L147.584 96.8277L140.141 111.925L127.67 97.5784C126.763 96.5673 126.1 95.3607 125.732 94.0486C125.363 92.7366 125.298 91.3529 125.541 90.0007C125.777 88.7556 126.347 87.5917 127.19 86.6336C128.033 85.6755 129.117 84.9593 130.327 84.5617L248.622 46.182C252.202 44.9185 255.603 44.2261 259.191 44.4345C263.308 44.6597 267.137 46.5054 269.839 49.5672C269.931 49.6725 270.026 49.8362 270.026 49.8362L382.743 179.497L382.725 179.513C386.475 184.187 386.652 189.086 386.204 193.05C384.477 205.15 375.692 218.703 363.371 229.722C359.966 232.648 356.278 235.224 352.363 237.413L249.622 119.229C244.372 113.009 236.742 109.289 228.651 108.866C223.081 108.615 217.497 109.506 212.243 111.483L102.724 147.01Z" fill="#9654D8"/>
<path d="M914.107 459.043C914.674 457.907 915.541 456.941 916.615 456.248C917.689 455.555 918.929 455.161 920.203 455.107L1044.47 450.383C1049.88 450.189 1055.95 448.451 1061.74 445.727C1069.83 441.96 1077.32 436.189 1081.96 430.946C1083.39 429.378 1084.65 427.666 1085.71 425.84C1085.18 425.831 1084.54 425.852 1083.84 425.898L970.815 430.201L959.542 442.701L951.439 425.479C950.84 424.261 950.529 422.921 950.53 421.559C950.531 420.197 950.843 418.848 951.443 417.613C952.007 416.48 952.871 415.516 953.942 414.825C955.012 414.133 956.249 413.74 957.519 413.688L1081.79 408.963C1085.58 408.723 1089.06 408.988 1092.44 410.16C1096.34 411.495 1099.52 414.312 1101.29 417.994C1101.34 418.099 1101.4 418.293 1101.4 418.293L1174.31 573.255L1174.43 573.455C1174.45 573.497 1174.43 573.533 1174.45 573.575L1174.53 573.744L1174.51 573.754C1176.84 579.273 1175.68 584.035 1174.17 587.727C1169.21 598.899 1157.07 609.558 1142.22 616.8C1135.15 620.13 1127.47 622.458 1119.51 622.787L995.199 627.516C991.921 627.645 988.779 625.616 987.249 622.365L914.102 466.909C913.508 465.689 913.2 464.349 913.201 462.988C913.202 461.627 913.511 460.279 914.107 459.043ZM965.934 398.678C965.027 396.278 964.963 393.61 966.076 391.467C966.644 390.331 967.511 389.365 968.585 388.672C969.659 387.979 970.899 387.585 972.173 387.532L1096.43 382.786C1101.84 382.582 1107.92 380.849 1113.7 378.13C1121.78 374.353 1129.27 368.582 1133.91 363.328C1135.35 361.772 1136.61 360.066 1137.67 358.243C1137.14 358.235 1136.5 358.255 1135.8 358.301L1022.76 362.609L1011.49 375.109L1003.4 357.908C1002.8 356.689 1002.49 355.347 1002.49 353.984C1002.5 352.621 1002.81 351.272 1003.41 350.037C1003.98 348.904 1004.84 347.939 1005.92 347.247C1006.99 346.554 1008.23 346.161 1009.5 346.107L1133.78 341.393C1137.56 341.152 1141.03 341.412 1144.42 342.59C1148.32 343.928 1151.5 346.746 1153.27 350.428C1153.33 350.555 1153.38 350.738 1153.38 350.738L1226.52 506.194L1226.5 506.205C1228.84 511.723 1227.67 516.486 1226.16 520.177C1221.2 531.35 1209.06 541.998 1194.2 549.246C1190.13 551.133 1185.88 552.608 1181.52 553.647L1114.85 411.951C1111.49 404.537 1105.16 398.88 1097.49 396.27C1092.2 394.511 1086.58 393.847 1080.99 394.32L965.934 398.678Z" fill="#9654D8"/>
<path d="M1184.59 219.207C1184.35 217.96 1183.78 216.794 1182.94 215.834C1182.09 214.875 1181.01 214.158 1179.79 213.76L1061.51 175.371C1056.36 173.712 1050.99 170.387 1046.16 166.189C1039.4 160.362 1033.77 152.771 1030.73 146.461C1029.78 144.564 1029.04 142.574 1028.51 140.526C1029.02 140.662 1029.64 140.858 1030.3 141.092L1137.88 176.012L1145.32 191.109L1157.81 176.745C1158.72 175.736 1159.38 174.531 1159.75 173.22C1160.12 171.91 1160.19 170.527 1159.95 169.175C1159.71 167.932 1159.14 166.769 1158.3 165.812C1157.46 164.855 1156.38 164.14 1155.17 163.744L1036.88 125.356C1033.3 124.092 1029.88 123.401 1026.31 123.608C1022.19 123.829 1018.36 125.672 1015.66 128.733C1015.58 128.821 1015.48 128.993 1015.48 128.993L903.117 258.242L902.947 258.402C902.916 258.437 902.928 258.478 902.897 258.513L902.775 258.653L902.793 258.669C899.044 263.343 898.866 268.242 899.314 272.206C901.041 284.306 909.818 297.867 922.131 308.879C928.033 314.01 934.787 318.34 942.36 320.826L1060.68 359.229C1063.8 360.246 1067.38 359.149 1069.73 356.437L1182.45 226.776C1183.36 225.765 1184.02 224.56 1184.39 223.25C1184.76 221.94 1184.83 220.558 1184.59 219.207ZM1151.16 147.01C1152.69 144.947 1153.47 142.397 1152.99 140.032C1152.75 138.785 1152.18 137.619 1151.33 136.66C1150.49 135.7 1149.4 134.983 1148.19 134.585L1029.92 96.1793C1024.78 94.5114 1019.39 91.1869 1014.57 86.997C1007.82 81.1611 1002.19 73.5699 999.16 67.2518C998.202 65.3629 997.452 63.3785 996.925 61.3344C997.435 61.4699 998.05 61.6655 998.71 61.9L1106.3 96.8277L1113.74 111.925L1126.21 97.5784C1127.12 96.5673 1127.78 95.3607 1128.15 94.0486C1128.52 92.7366 1128.59 91.3529 1128.34 90.0007C1128.11 88.7556 1127.54 87.5917 1126.69 86.6336C1125.85 85.6755 1124.77 84.9593 1123.56 84.5617L1005.26 46.182C1001.68 44.9185 998.28 44.2261 994.692 44.4345C990.576 44.6597 986.747 46.5054 984.045 49.5672C983.953 49.6725 983.858 49.8362 983.858 49.8362L871.14 179.497L871.158 179.513C867.409 184.187 867.232 189.086 867.68 193.05C869.407 205.15 878.191 218.703 890.513 229.722C893.918 232.648 897.606 235.224 901.521 237.413L1004.26 119.229C1009.51 113.009 1017.14 109.289 1025.23 108.866C1030.8 108.615 1036.39 109.506 1041.64 111.483L1151.16 147.01Z" fill="#9654D8"/>
</svg>
