<svg width="1197" height="720" viewBox="0 0 1197 720" fill="none" xmlns="http://www.w3.org/2000/svg">
<circle cx="113.491" cy="357.785" r="108.349" stroke="#E1D885" stroke-width="10"/>
<circle cx="58.9796" cy="357.785" r="12.3888" fill="#E1D885"/>
<circle cx="113.49" cy="357.785" r="12.3888" fill="#E1D885"/>
<circle cx="168.001" cy="357.785" r="12.3888" fill="#E1D885"/>
<circle cx="152.838" cy="566.676" r="109.902" transform="rotate(-25 152.838 566.676)" stroke="#E1D885" stroke-width="10"/>
<circle cx="102.758" cy="590.031" r="12.5585" transform="rotate(-25 102.758 590.031)" fill="#E1D885"/>
<circle cx="152.838" cy="566.678" r="12.5585" transform="rotate(-25 152.838 566.678)" fill="#E1D885"/>
<circle cx="202.919" cy="543.324" r="12.5585" transform="rotate(-25 202.919 543.324)" fill="#E1D885"/>
<circle cx="154.804" cy="152.696" r="109.902" transform="rotate(25 154.804 152.696)" stroke="#E1D885" stroke-width="10"/>
<circle cx="104.723" cy="129.344" r="12.5585" transform="rotate(25 104.723 129.344)" fill="#E1D885"/>
<circle cx="154.803" cy="152.697" r="12.5585" transform="rotate(25 154.803 152.697)" fill="#E1D885"/>
<circle cx="204.884" cy="176.051" r="12.5585" transform="rotate(25 204.884 176.051)" fill="#E1D885"/>
<circle cx="113.349" cy="113.349" r="108.349" transform="matrix(-1 0 0 1 1196.86 244.436)" stroke="#E1D885" stroke-width="10"/>
<circle cx="12.3888" cy="12.3888" r="12.3888" transform="matrix(-1 0 0 1 1150.41 345.396)" fill="#E1D885"/>
<circle cx="12.3888" cy="12.3888" r="12.3888" transform="matrix(-1 0 0 1 1095.9 345.396)" fill="#E1D885"/>
<circle cx="12.3888" cy="12.3888" r="12.3888" transform="matrix(-1 0 0 1 1041.39 345.396)" fill="#E1D885"/>
<circle cx="114.902" cy="114.902" r="109.902" transform="matrix(-0.906308 -0.422618 -0.422618 0.906308 1196.86 511.1)" stroke="#E1D885" stroke-width="10"/>
<circle cx="12.5585" cy="12.5585" r="12.5585" transform="matrix(-0.906308 -0.422618 -0.422618 0.906308 1110.93 583.957)" fill="#E1D885"/>
<circle cx="12.5585" cy="12.5585" r="12.5585" transform="matrix(-0.906308 -0.422618 -0.422618 0.906308 1060.85 560.604)" fill="#E1D885"/>
<circle cx="12.5585" cy="12.5585" r="12.5585" transform="matrix(-0.906308 -0.422618 -0.422618 0.906308 1010.77 537.25)" fill="#E1D885"/>
<circle cx="114.902" cy="114.902" r="109.902" transform="matrix(-0.906308 0.422618 0.422618 0.906308 1097.77 0)" stroke="#E1D885" stroke-width="10"/>
<circle cx="12.5585" cy="12.5585" r="12.5585" transform="matrix(-0.906308 0.422618 0.422618 0.906308 1098.35 112.654)" fill="#E1D885"/>
<circle cx="12.5585" cy="12.5585" r="12.5585" transform="matrix(-0.906308 0.422618 0.422618 0.906308 1048.27 136.008)" fill="#E1D885"/>
<circle cx="12.5585" cy="12.5585" r="12.5585" transform="matrix(-0.906308 0.422618 0.422618 0.906308 998.191 159.361)" fill="#E1D885"/>
</svg>
