<svg width="1341" height="874" viewBox="0 0 1341 874" fill="none" xmlns="http://www.w3.org/2000/svg">
<path d="M1238.94 102.502C1264.72 92.7273 1280.13 110.746 1284.7 125.349L1303.13 188.891C1310.73 215.512 1292.61 232.73 1278.37 238.482L1243.18 251.709L1224.43 289.265C1210.68 316.816 1189.33 326.086 1169.89 326.523L1078.34 361.244L1024.81 334.522L1010.31 340.141C984.398 349.849 969.122 331.897 964.545 317.294L946.121 253.752C942.804 242.314 944.327 232.568 948.308 224.593C953.448 214.297 962.837 207.21 970.879 204.161L1026.69 183.114L1052.68 131.058C1064.98 106.407 1085.39 101.018 1101.55 103.471C1113.75 89.0895 1129.74 85.8444 1142.79 87.8309C1159.37 68.0276 1183.24 69.4377 1197.02 76.3185L1237.16 96.3597L1232.89 104.915L1238.94 102.502ZM1182.54 105.319C1176.52 102.313 1167.78 101.394 1161.92 113.139L1154.68 127.639L1141.3 120.959C1135.28 117.953 1126.54 117.033 1120.68 128.779L1113.44 143.279L1100.06 136.599C1094.04 133.592 1085.3 132.673 1079.44 144.418L1047.51 208.365L979.878 234.014C973.754 236.572 974.725 240.318 975.401 242.647L993.63 305.911C995.679 312.187 999.318 310.924 1001.59 310.064L1028.32 300.043L1081.84 326.765L1123.08 311.125L1101.81 300.503C1085.62 292.42 1067.46 268.862 1083.38 236.961C1099.31 205.061 1129.05 205.418 1145.24 213.502L1195.92 111.999L1182.54 105.319ZM1247.66 132.579L1212.47 145.806L1157.53 255.863L1130.77 242.502C1124.74 239.496 1116.01 238.577 1110.14 250.322C1104.28 262.067 1110.26 268.497 1116.29 271.503L1156.43 291.544C1162.58 294.617 1184.42 302.44 1197.67 275.904L1222.35 226.458L1269.37 208.629C1275.49 206.071 1274.52 202.325 1273.85 199.996L1255.62 136.732C1253.57 130.456 1249.93 131.719 1247.66 132.579Z" fill="#DB754A"/>
<path d="M1194.53 491.801C1216.41 492.532 1223.37 475.031 1223.06 462.879L1220.6 410.385C1219.48 388.422 1201.44 380.133 1189.26 379.464L1159.41 378.556L1135.68 355.139C1118.26 337.961 1099.84 336.472 1085.11 341.135L1007.38 338.54L974.007 372.368L961.66 371.868C939.692 371.222 932.818 388.638 933.126 400.791L935.59 453.284C936.034 462.733 939.681 469.669 944.721 474.641C951.228 481.06 960.105 483.977 966.933 484.205L1014.29 485.698L1047.19 518.156C1062.77 533.526 1079.49 532.337 1091.01 526.345C1103.87 534.024 1116.72 532.357 1126.02 527.513C1143.57 538.145 1161.15 530.957 1169.74 522.246L1194.77 496.876L1189.36 491.542L1194.53 491.801ZM1151.41 504.164C1147.66 507.97 1141.33 510.903 1133.9 503.58L1124.74 494.539L1116.4 502.995C1112.64 506.801 1106.31 509.734 1098.89 502.411L1089.72 493.37L1081.38 501.827C1077.63 505.632 1071.3 508.566 1063.87 501.242L1023.46 461.371L966.033 459.454C960.773 459.104 960.541 456.039 960.451 454.114L957.912 401.88C957.841 396.636 960.9 396.651 962.826 396.715L985.494 397.384L1018.87 363.557L1053.88 364.726L1040.62 378.172C1030.52 388.405 1022.92 410.776 1043.08 430.666C1063.24 450.557 1085.51 442.652 1095.6 432.419L1159.75 495.707L1151.41 504.164ZM1193.36 466.954L1163.52 466.045L1093.96 397.423L1077.27 414.337C1073.52 418.142 1067.19 421.076 1059.77 413.752C1052.34 406.429 1055.19 400.06 1058.94 396.254L1083.97 370.884C1087.81 366.994 1102.22 355.507 1118.99 372.053L1150.24 402.883L1190.16 404.215C1195.42 404.565 1195.65 407.631 1195.74 409.555L1198.28 461.79C1198.35 467.033 1195.29 467.019 1193.36 466.954Z" fill="#DB754A"/>
<path d="M1001.43 542.802C975.223 534.253 960.679 552.978 956.795 567.781L941.386 632.12C935.045 659.07 953.96 675.414 968.455 680.489L1004.23 692.043L1024.73 728.674C1039.76 755.545 1061.52 763.799 1080.96 763.32L1174.05 793.687L1226.25 764.472L1241.01 769.401C1267.35 777.877 1281.76 759.225 1285.64 744.423L1301.05 680.083C1303.83 668.502 1301.85 658.838 1297.49 651.059C1291.87 641.018 1282.16 634.381 1273.98 631.714L1217.25 613.321L1188.83 562.547C1175.38 538.504 1154.74 534.083 1138.71 537.294C1125.85 523.504 1109.72 521.016 1096.78 523.616C1079.29 504.616 1055.51 507.149 1042.07 514.672L1002.92 536.583L1007.59 544.927L1001.43 542.802ZM1057.9 542.958C1063.77 539.671 1072.46 538.341 1078.87 549.797L1086.78 563.94L1099.83 556.636C1105.71 553.35 1114.39 552.02 1120.8 563.476L1128.71 577.619L1141.76 570.315C1147.64 567.028 1156.32 565.699 1162.73 577.154L1197.63 639.525L1266.4 661.958C1272.64 664.224 1271.85 668.012 1271.28 670.371L1256.05 734.423C1254.3 740.789 1250.61 739.699 1248.3 738.947L1221.13 730.197L1168.92 759.412L1126.99 745.733L1147.74 734.12C1163.53 725.283 1180.56 700.895 1163.15 669.78C1145.74 638.666 1116.05 640.425 1100.25 649.262L1044.85 550.261L1057.9 542.958ZM994.136 573.256L1029.91 584.81L1089.98 692.155L1116.08 677.548C1121.96 674.262 1130.64 672.932 1137.05 684.388C1143.46 695.843 1137.79 702.548 1131.91 705.834L1092.76 727.745C1086.76 731.105 1065.31 739.948 1050.83 714.066L1023.84 665.839L976.037 650.245C969.799 647.979 970.593 644.191 971.158 641.832L986.385 577.78C988.135 571.414 991.83 572.504 994.136 573.256Z" fill="#DB754A"/>
<path d="M101.362 102.502C75.5871 92.7273 60.1777 110.746 55.6001 125.349L37.1759 188.891C29.5716 215.512 47.6957 232.73 61.9345 238.482L97.1225 251.709L115.872 289.265C129.627 316.816 150.971 326.086 170.413 326.523L261.966 361.244L315.489 334.522L329.996 340.141C355.905 349.849 371.18 331.897 375.758 317.294L394.182 253.752C397.499 242.314 395.976 232.568 391.994 224.593C386.854 214.297 377.465 207.21 369.424 204.161L313.616 183.114L287.626 131.058C275.319 106.407 254.91 101.018 238.75 103.471C226.555 89.0895 210.559 85.8444 197.51 87.8309C180.936 68.0276 157.068 69.4377 143.286 76.3185L103.143 96.3597L107.414 104.915L101.362 102.502ZM157.764 105.319C163.786 102.313 172.52 101.394 178.384 113.139L185.624 127.639L199.004 120.959C205.026 117.953 213.761 117.033 219.625 128.779L226.864 143.279L240.245 136.599C246.266 133.592 255.001 132.673 260.865 144.418L292.79 208.365L360.424 234.014C366.549 236.572 365.577 240.318 364.902 242.647L346.673 305.911C344.624 312.187 340.985 310.924 338.717 310.064L311.983 300.043L258.46 326.765L217.22 311.125L238.495 300.503C254.686 292.42 272.846 268.862 256.919 236.961C240.993 205.061 211.25 205.418 195.059 213.502L144.383 111.999L157.764 105.319ZM92.6415 132.579L127.829 145.806L182.776 255.863L209.538 242.502C215.559 239.496 224.294 238.577 230.158 250.322C236.022 262.067 230.038 268.497 224.016 271.503L183.874 291.544C177.719 294.617 155.882 302.44 142.634 275.904L117.948 226.458L70.9339 208.629C64.8093 206.071 65.7809 202.325 66.4565 199.996L84.6854 136.732C86.734 130.456 90.3733 131.719 92.6415 132.579Z" fill="#DB754A"/>
<path d="M145.773 491.801C123.888 492.532 116.931 475.031 117.239 462.879L119.703 410.385C120.821 388.422 138.865 380.133 151.045 379.464L180.892 378.556L204.627 355.139C222.04 337.961 240.464 336.472 255.19 341.135L332.924 338.54L366.296 372.368L378.643 371.868C400.611 371.222 407.485 388.638 407.176 400.791L404.712 453.284C404.269 462.733 400.622 469.669 395.582 474.641C389.075 481.06 380.198 483.977 373.37 484.205L326.016 485.698L293.116 518.156C277.537 533.526 260.812 532.337 249.294 526.345C236.435 534.024 223.578 532.357 214.279 527.513C196.737 538.145 179.157 530.957 170.564 522.246L145.534 496.876L150.941 491.542L145.773 491.801ZM188.893 504.164C192.647 507.97 198.977 510.903 206.4 503.58L215.564 494.539L223.908 502.995C227.662 506.801 233.992 509.734 241.415 502.411L250.579 493.37L258.923 501.827C262.677 505.632 269.007 508.566 276.43 501.242L316.845 461.371L374.27 459.454C379.53 459.104 379.761 456.039 379.852 454.114L382.391 401.88C382.462 396.636 379.402 396.651 377.477 396.715L354.809 397.384L321.436 363.557L286.421 364.726L299.687 378.172C309.782 388.405 317.384 410.776 297.223 430.666C277.061 450.557 254.795 442.652 244.7 432.419L180.549 495.707L188.893 504.164ZM146.939 466.954L176.785 466.045L246.343 397.423L263.029 414.337C266.783 418.142 273.113 421.076 280.537 413.752C287.96 406.429 285.112 400.06 281.358 396.254L256.329 370.884C252.491 366.994 238.084 355.507 221.314 372.053L190.063 402.883L150.146 404.215C144.885 404.565 144.654 407.631 144.564 409.555L142.025 461.79C141.953 467.033 145.013 467.019 146.939 466.954Z" fill="#DB754A"/>
<path d="M338.873 542.802C365.08 534.253 379.623 552.978 383.508 567.781L398.916 632.12C405.258 659.07 386.342 675.414 371.848 680.489L336.076 692.043L315.577 728.674C300.539 755.545 278.781 763.799 259.341 763.32L166.253 793.687L114.049 764.472L99.2934 769.401C72.9557 777.877 58.5431 759.225 54.6589 744.423L39.25 680.083C36.4764 668.502 38.4567 658.838 42.8098 651.059C48.4293 641.018 58.1417 634.381 66.3183 631.714L123.056 613.321L151.47 562.547C164.925 538.504 185.566 534.083 201.593 537.294C214.452 523.504 230.583 521.016 243.524 523.616C261.012 504.616 284.788 507.149 298.23 514.672L337.383 536.583L332.714 544.927L338.873 542.802ZM282.401 542.958C276.528 539.671 267.846 538.341 261.435 549.797L253.521 563.94L240.469 556.636C234.597 553.35 225.915 552.02 219.504 563.476L211.589 577.619L198.538 570.315C192.665 567.028 183.983 565.699 177.572 577.154L142.668 639.525L73.9007 661.958C67.6623 664.224 68.4563 668.012 69.0213 670.371L84.2484 734.423C85.9989 740.789 89.6936 739.699 91.9998 738.947L119.176 730.197L171.38 759.412L213.312 745.733L192.561 734.12C176.769 725.283 159.739 700.895 177.152 669.78C194.564 638.666 224.257 640.425 240.049 649.262L295.452 550.261L282.401 542.958ZM346.167 573.256L310.394 584.81L250.322 692.155L224.22 677.548C218.347 674.262 209.665 672.932 203.254 684.388C196.843 695.843 202.517 702.548 208.39 705.834L247.543 727.745C253.547 731.105 274.991 739.948 289.475 714.066L316.464 665.839L364.266 650.245C370.504 647.979 369.71 644.191 369.145 641.832L353.918 577.78C352.168 571.414 348.473 572.504 346.167 573.256Z" fill="#DB754A"/>
</svg>
