<svg width="205" height="189" viewBox="0 0 205 189" fill="none" xmlns="http://www.w3.org/2000/svg">
<path d="M197.752 64.7418C210.014 53.4374 204.422 40.2338 197.752 33.8129L168.323 6.6823C155.963 -4.62212 141.739 0.532697 134.774 6.6823L118.097 22.1467H92.6904C74.052 22.1467 63.2614 31.1903 57.768 41.5904L14.2132 81.7437V117.918L7.24838 124.248C-5.01367 135.643 0.577823 148.756 7.24838 155.177L36.6773 182.308C41.9745 187.191 47.6641 189 53.0594 189C60.0243 189 66.4005 185.835 70.2263 182.308L96.7123 157.8H131.929C148.605 157.8 157.042 148.214 160.083 138.808C171.167 136.095 177.249 128.318 179.702 120.721C194.907 117.104 200.596 103.81 200.596 94.495V67.3644H194.809L197.752 64.7418ZM180.977 94.495C180.977 98.5646 179.113 103.539 171.167 103.539H161.358V112.582C161.358 116.652 159.494 121.626 151.548 121.626H141.739V130.669C141.739 134.739 139.875 139.713 131.929 139.713H88.6684L56.4928 169.376C53.4518 171.998 51.6861 170.461 50.607 169.466L21.2762 142.516C18.4314 139.713 20.099 138.085 21.1781 137.09L33.8325 125.334V89.1594L53.4518 71.0723V85.4515C53.4518 96.3942 61.2995 112.582 82.8807 112.582C104.462 112.582 112.31 96.3942 112.31 85.4515H180.977V94.495ZM183.822 51.9L167.146 67.3644H92.6904V85.4515C92.6904 89.5211 90.8265 94.495 82.8807 94.495C74.9349 94.495 73.0711 89.5211 73.0711 85.4515V58.3209C73.0711 54.1609 74.7387 40.2338 92.6904 40.2338H126.141L148.507 19.6146C151.548 16.9919 153.314 18.5293 154.393 19.5241L183.724 46.4739C186.569 49.2774 184.901 50.9052 183.822 51.9Z" fill="#F2FBF8"/>
</svg>
