<svg width="49" height="49" viewBox="0 0 49 49" fill="none" xmlns="http://www.w3.org/2000/svg">
<path d="M35.5432 33.7959L27.1464 42.1927C26.7791 42.5603 26.3431 42.8519 25.8631 43.0508C25.3831 43.2498 24.8686 43.3522 24.3491 43.3522C23.8295 43.3522 23.315 43.2498 22.835 43.0508C22.3551 42.8519 21.919 42.5603 21.5518 42.1927L13.153 33.7959C10.939 31.5817 9.4312 28.7608 8.82039 25.6897C8.20958 22.6186 8.52315 19.4354 9.72145 16.5426C10.9197 13.6498 12.949 11.1772 15.5525 9.43762C18.156 7.69803 21.2169 6.76953 24.3481 6.76953C27.4793 6.76953 30.5402 7.69803 33.1437 9.43762C35.7472 11.1772 37.7764 13.6498 38.9747 16.5426C40.173 19.4354 40.4866 22.6186 39.8758 25.6897C39.265 28.7608 37.7572 31.5817 35.5432 33.7959Z" stroke="#313131" stroke-width="3" stroke-linecap="round" stroke-linejoin="round"/>
<path d="M30.285 22.601C30.285 24.1756 29.6595 25.6857 28.5461 26.799C27.4327 27.9124 25.9226 28.5379 24.3481 28.5379C22.7735 28.5379 21.2634 27.9124 20.15 26.799C19.0366 25.6857 18.4111 24.1756 18.4111 22.601C18.4111 21.0264 19.0366 19.5163 20.15 18.403C21.2634 17.2896 22.7735 16.6641 24.3481 16.6641C25.9226 16.6641 27.4327 17.2896 28.5461 18.403C29.6595 19.5163 30.285 21.0264 30.285 22.601Z" stroke="#313131" stroke-width="3" stroke-linecap="round" stroke-linejoin="round"/>
</svg>
