<svg width="14" height="15" viewBox="0 0 14 15" fill="none" xmlns="http://www.w3.org/2000/svg">
<path fill-rule="evenodd" clip-rule="evenodd" d="M6.12151 0.5C5.14357 0.500109 4.1799 0.741439 3.31115 1.20379C2.44239 1.66614 1.69385 2.33605 1.12817 3.15745C0.562497 3.97884 0.19615 4.92782 0.0598 5.92494C-0.0765498 6.92206 0.0210655 7.93831 0.344474 8.88861C0.667883 9.83891 1.20767 10.6956 1.91866 11.387C2.62965 12.0784 3.49114 12.5843 4.43102 12.8625C5.3709 13.1406 6.36182 13.1829 7.32082 12.9857C8.27982 12.7886 9.17901 12.3578 9.9431 11.7293L12.443 14.3034C12.5713 14.431 12.7431 14.5016 12.9215 14.5C13.0998 14.4984 13.2704 14.4247 13.3966 14.2948C13.5227 14.165 13.5942 13.9893 13.5958 13.8057C13.5973 13.622 13.5288 13.4451 13.4048 13.313L10.905 10.7389C11.6246 9.81143 12.0754 8.69355 12.2052 7.51395C12.3351 6.33435 12.1388 5.14095 11.639 4.07114C11.1392 3.00133 10.3562 2.09858 9.3801 1.4668C8.40398 0.835022 7.27445 0.499897 6.12151 0.5ZM2.04006 6.80387C2.04006 6.25198 2.14563 5.70549 2.35074 5.19561C2.55585 4.68573 2.85649 4.22244 3.23549 3.8322C3.61448 3.44195 4.06442 3.13239 4.5596 2.92119C5.05479 2.70999 5.58552 2.60129 6.12151 2.60129C6.65749 2.60129 7.18822 2.70999 7.68341 2.92119C8.17859 3.13239 8.62852 3.44195 9.00752 3.8322C9.38652 4.22244 9.68716 4.68573 9.89227 5.19561C10.0974 5.70549 10.2029 6.25198 10.2029 6.80387C10.2029 7.91847 9.77294 8.98741 9.00752 9.77555C8.2421 10.5637 7.20397 11.0065 6.12151 11.0065C5.03904 11.0065 4.00091 10.5637 3.23549 9.77555C2.47007 8.98741 2.04006 7.91847 2.04006 6.80387Z" fill="#313131"/>
</svg>
