<svg width="282" height="282" viewBox="0 0 282 282" fill="none" xmlns="http://www.w3.org/2000/svg">
<path d="M276.71 140.85C276.71 142.23 276.69 143.6 276.65 144.97C275.93 169.16 268.88 191.76 257.11 211.18C242.18 235.8 219.64 255.31 192.76 266.43C176.77 273.05 159.24 276.7 140.85 276.7C123.78 276.7 107.45 273.55 92.4 267.8C65.41 257.5 42.55 238.83 26.99 214.97C13.78 194.73 5.83 170.75 5.06 144.97C5.02 143.6 5 142.23 5 140.85C5 112.25 13.84 85.73 28.92 63.84C45.75 39.42 70.36 20.79 99.18 11.51C112.31 7.28 126.31 5 140.85 5C155.39 5 169.4 7.28 182.53 11.51C211.34 20.79 235.96 39.43 252.79 63.84C267.87 85.73 276.71 112.25 276.71 140.85Z" stroke="white" stroke-width="10" stroke-miterlimit="10"/>
<path d="M140.85 100.26L98.1799 131.27L114.48 181.44H167.23L183.53 131.27L140.85 100.26Z" fill="white" stroke="white" stroke-width="10" stroke-miterlimit="10"/>
<path d="M183.53 14.58L140.85 45.58L98.1799 14.58L99.1799 11.51C112.31 7.28 126.31 5 140.85 5C155.39 5 169.4 7.28 182.53 11.51L183.53 14.58Z" fill="white" stroke="white" stroke-width="10" stroke-miterlimit="10"/>
<path d="M92.4 267.8C65.41 257.5 42.55 238.83 26.99 214.97L27.29 214.23L79.91 217.87L92.4 267.8Z" fill="white" stroke="white" stroke-width="10" stroke-miterlimit="10"/>
<path d="M257.11 211.179C242.18 235.799 219.64 255.309 192.76 266.429L191.56 265.679L204.36 214.509L256.98 210.859L257.11 211.179Z" fill="white" stroke="white" stroke-width="10" stroke-miterlimit="10"/>
<path d="M276.71 140.85C276.71 142.23 276.69 143.6 276.65 144.97L234.03 114.01L250.33 63.8398H252.79C267.87 85.7298 276.71 112.25 276.71 140.85Z" fill="white" stroke="white" stroke-width="10" stroke-miterlimit="10"/>
<path d="M47.67 114.01L5.06 144.97C5.02 143.6 5 142.23 5 140.85C5 112.25 13.84 85.7298 28.92 63.8398H31.37L47.67 114.01Z" fill="white" stroke="white" stroke-width="10" stroke-miterlimit="10"/>
<path d="M47.6699 114.01L98.1799 131.27" stroke="white" stroke-width="10" stroke-miterlimit="10" stroke-linecap="square"/>
<path d="M183.53 131.27L234.03 114.01" stroke="white" stroke-width="10" stroke-miterlimit="10" stroke-linecap="square"/>
<path d="M140.85 100.26V45.5801" stroke="white" stroke-width="10" stroke-miterlimit="10" stroke-linecap="square"/>
<path d="M79.9099 217.869L114.48 181.439" stroke="white" stroke-width="10" stroke-miterlimit="10" stroke-linecap="square"/>
<path d="M167.23 181.439L204.36 214.509" stroke="white" stroke-width="10" stroke-miterlimit="10" stroke-linecap="square"/>
</svg>
