<svg width="20" height="15" viewBox="0 0 20 15" fill="none" xmlns="http://www.w3.org/2000/svg">
<path d="M19.3007 8.21848C19.6047 7.93723 19.7754 7.55598 19.7754 7.15848C19.7754 6.76098 19.6047 6.37973 19.3007 6.09848L13.1808 0.439481C12.8763 0.158086 12.4633 -4.19311e-09 12.0327 0C11.6021 4.19311e-09 11.1892 0.158086 10.8847 0.439481C10.5802 0.720876 10.4092 1.10253 10.4092 1.50048C10.4092 1.89843 10.5802 2.28009 10.8847 2.56148L14.2347 5.65848L1.75343 5.65848C1.32297 5.65848 0.910139 5.81652 0.605759 6.09782C0.301378 6.37912 0.130379 6.76066 0.130379 7.15848C0.130379 7.55631 0.301378 7.93784 0.605759 8.21914C0.910139 8.50045 1.32297 8.65848 1.75343 8.65848L14.2347 8.65848L10.8847 11.7545C10.7339 11.8938 10.6143 12.0592 10.5327 12.2413C10.4511 12.4233 10.4092 12.6184 10.4092 12.8155C10.4092 13.0125 10.4511 13.2076 10.5327 13.3897C10.6143 13.5717 10.7339 13.7371 10.8847 13.8765C11.0354 14.0158 11.2144 14.1263 11.4114 14.2017C11.6084 14.2771 11.8195 14.316 12.0327 14.316C12.2459 14.316 12.4571 14.2771 12.654 14.2017C12.851 14.1263 13.03 14.0158 13.1808 13.8765L19.3007 8.21848Z" fill="#313131"/>
</svg>
