<svg width="174" height="197" viewBox="0 0 174 197" fill="none" xmlns="http://www.w3.org/2000/svg">
<path d="M171.806 40.53C171.154 40.0174 170.372 39.6881 169.543 39.5772C168.714 39.4663 167.87 39.5781 167.102 39.9005L92.2313 71.6253C88.9761 73.0132 84.8993 73.673 80.7141 73.673C74.8779 73.6958 68.8402 72.3685 64.6317 70.5635C63.3492 70.0349 62.128 69.3739 60.9889 68.5916C61.299 68.4399 61.6865 68.2731 62.1128 68.1062L130.209 39.2558L140.362 43.503V31.0876C140.377 30.2023 140.188 29.325 139.808 28.5212C139.429 27.7175 138.868 27.0081 138.169 26.4461C137.519 25.9341 136.74 25.605 135.914 25.4941C135.087 25.3832 134.246 25.4947 133.48 25.8166L58.6095 57.5414C56.2999 58.4515 54.3157 59.574 52.6416 61.2046C50.703 63.0761 49.602 65.6235 49.5802 68.2882C49.5802 68.3641 49.6034 68.493 49.6034 68.493V180.209L49.5879 180.36C49.5879 180.391 49.6112 180.406 49.6112 180.436V180.557H49.6267C49.7817 184.463 51.7968 186.951 53.7189 188.71C59.7644 193.928 69.9176 196.848 80.7218 197C85.8372 197 91.03 196.242 95.8353 194.224L170.729 162.492C172.705 161.658 173.999 159.587 173.999 157.244V45.1715C174.011 44.2867 173.821 43.4104 173.441 42.6072C173.061 41.804 172.503 41.0942 171.806 40.53ZM124.319 19.2942C124.187 17.6257 123.482 16.033 122.226 15.0774C121.574 14.5648 120.791 14.2354 119.963 14.1246C119.134 14.0137 118.29 14.1254 117.521 14.4479L42.6512 46.1575C39.396 47.5378 35.3114 48.2052 31.1339 48.2052C25.2977 48.2204 19.2601 46.8932 15.0515 45.0805C13.7677 44.5608 12.5462 43.9046 11.4088 43.1238C11.7188 42.9721 12.1063 42.8053 12.5326 42.6384L80.6365 13.788L90.7897 18.0352V5.635C90.8036 4.7491 90.6128 3.87158 90.2316 3.0679C89.8505 2.26421 89.2889 1.5551 88.5886 0.993462C87.9377 0.481565 87.1567 0.152558 86.3293 0.0416714C85.502 -0.0692152 84.6594 0.0421956 83.8918 0.363972L9.02162 32.0963C6.71196 33.0064 4.73558 34.1213 3.05371 35.7595C1.11795 37.6323 0.0198283 40.1796 0 42.8432C0 42.9342 0.0232499 43.0555 0.0232499 43.0555V155.128H0.0387536C0.193764 159.033 2.2089 161.521 4.13103 163.281C10.1765 168.499 20.3297 171.411 31.1416 171.563C34.0778 171.546 37.0046 171.236 39.8765 170.637V68.4854C39.799 63.1765 41.9691 58.0799 45.7824 54.4091C48.4243 51.9015 51.5632 49.9501 55.0055 48.6754L124.319 19.2942Z" fill="#F2FBF8"/>
</svg>
