<svg width="1153" height="650" viewBox="0 0 1153 650" fill="none" xmlns="http://www.w3.org/2000/svg">
<path d="M172.097 215.864C184.444 217.992 197.196 216.706 208.755 212.166C220.314 207.626 230.166 200.034 237.077 190.342" stroke="#44B752" stroke-width="15" stroke-linecap="round" stroke-linejoin="round"/>
<path d="M157.408 157.452C153.335 155.68 148.902 154.723 144.401 154.644C139.899 154.565 135.43 155.365 131.287 156.993C127.143 158.62 123.418 161.038 120.356 164.088C117.294 167.138 114.963 170.752 113.516 174.692" stroke="#44B752" stroke-width="15" stroke-linecap="round" stroke-linejoin="round"/>
<path d="M245.719 122.798C241.646 121.026 237.213 120.069 232.712 119.99C228.21 119.911 223.741 120.711 219.598 122.339C215.454 123.966 211.729 126.384 208.667 129.434C205.605 132.484 203.274 136.097 201.827 140.038" stroke="#44B752" stroke-width="15" stroke-linecap="round" stroke-linejoin="round"/>
<path d="M30.1652 100.81C29.4667 99.3387 29.1734 97.7306 29.3114 96.1292C29.4495 94.5277 30.0146 92.9828 30.9563 91.6324C31.898 90.2821 33.187 89.1683 34.7081 88.3907C36.2292 87.6131 37.935 87.1957 39.6731 87.176C61.2084 86.4764 101.732 83.0008 142.068 67.1576C182.405 51.3144 213.237 26.7634 228.728 12.92C229.949 11.7772 231.458 10.9318 233.12 10.4594C234.781 9.98702 236.544 9.90234 238.249 10.2129C239.955 10.5235 241.55 11.2197 242.894 12.2393C244.237 13.2589 245.286 14.5701 245.947 16.0559L274.97 79.1688C311.809 159.278 293.36 243.177 233.775 266.581C174.19 289.984 96.0271 244.032 59.1882 163.923L30.1652 100.81Z" stroke="#44B752" stroke-width="20" stroke-linecap="round" stroke-linejoin="round"/>
<path d="M152.437 403.762C141.337 405.675 129.874 404.519 119.483 400.437C109.092 396.356 100.235 389.531 94.022 380.818" stroke="#44B752" stroke-width="15" stroke-linecap="round" stroke-linejoin="round"/>
<path d="M165.642 351.252C169.304 349.659 173.288 348.799 177.335 348.727C181.382 348.656 185.399 349.376 189.124 350.839C192.849 352.302 196.197 354.475 198.95 357.217C201.703 359.959 203.799 363.208 205.099 366.75" stroke="#44B752" stroke-width="15" stroke-linecap="round" stroke-linejoin="round"/>
<path d="M86.253 320.099C89.915 318.506 93.8997 317.646 97.9463 317.575C101.993 317.504 106.01 318.223 109.735 319.686C113.46 321.15 116.809 323.323 119.562 326.065C122.315 328.807 124.41 332.055 125.71 335.597" stroke="#44B752" stroke-width="15" stroke-linecap="round" stroke-linejoin="round"/>
<path d="M280.028 300.332C280.656 299.009 280.92 297.564 280.796 296.124C280.672 294.684 280.164 293.296 279.317 292.082C278.471 290.868 277.312 289.866 275.944 289.167C274.577 288.468 273.043 288.093 271.481 288.075C252.121 287.447 215.692 284.322 179.431 270.08C143.17 255.837 115.453 233.767 101.527 221.322C100.429 220.295 99.0726 219.535 97.579 219.11C96.0854 218.685 94.5013 218.609 92.9681 218.888C91.4349 219.168 90.0004 219.793 88.7928 220.71C87.5851 221.627 86.642 222.805 86.0475 224.141L59.9569 280.877C26.84 352.893 43.4251 428.315 96.9902 449.354C150.555 470.393 220.821 429.084 253.938 357.068L280.028 300.332Z" stroke="#44B752" stroke-width="20" stroke-linecap="round" stroke-linejoin="round"/>
<path d="M163.826 576.157C173.53 577.83 183.552 576.819 192.637 573.25C201.722 569.682 209.466 563.715 214.897 556.098" stroke="#44B752" stroke-width="15" stroke-linecap="round" stroke-linejoin="round"/>
<path d="M152.281 530.249C149.079 528.856 145.596 528.104 142.058 528.042C138.52 527.98 135.007 528.609 131.751 529.888C128.494 531.167 125.567 533.068 123.16 535.465C120.753 537.862 118.921 540.702 117.784 543.799" stroke="#44B752" stroke-width="15" stroke-linecap="round" stroke-linejoin="round"/>
<path d="M221.69 503.015C218.488 501.622 215.004 500.87 211.466 500.808C207.928 500.746 204.416 501.375 201.16 502.654C197.903 503.933 194.975 505.833 192.568 508.23C190.161 510.628 188.329 513.468 187.192 516.565" stroke="#44B752" stroke-width="15" stroke-linecap="round" stroke-linejoin="round"/>
<path d="M52.2731 485.731C51.7241 484.575 51.4935 483.311 51.602 482.052C51.7105 480.793 52.1547 479.579 52.8948 478.518C53.635 477.456 54.6481 476.581 55.8436 475.97C57.0391 475.359 58.3798 475.031 59.7459 475.015C76.6718 474.465 108.522 471.734 140.225 459.281C171.927 446.829 196.16 427.533 208.335 416.653C209.295 415.755 210.481 415.09 211.787 414.719C213.093 414.348 214.478 414.281 215.819 414.525C217.159 414.769 218.413 415.317 219.469 416.118C220.525 416.919 221.349 417.95 221.869 419.118L244.68 468.722C273.634 531.684 259.134 597.626 212.302 616.02C165.47 634.414 104.038 598.298 75.084 535.335L52.2731 485.731Z" stroke="#44B752" stroke-width="20" stroke-linecap="round" stroke-linejoin="round"/>
<path d="M980.569 215.864C968.222 217.992 955.471 216.706 943.912 212.166C932.353 207.626 922.501 200.034 915.589 190.342" stroke="#44B752" stroke-width="15" stroke-linecap="round" stroke-linejoin="round"/>
<path d="M995.258 157.452C999.332 155.68 1003.76 154.723 1008.27 154.644C1012.77 154.565 1017.24 155.365 1021.38 156.993C1025.52 158.62 1029.25 161.038 1032.31 164.088C1035.37 167.138 1037.7 170.752 1039.15 174.692" stroke="#44B752" stroke-width="15" stroke-linecap="round" stroke-linejoin="round"/>
<path d="M906.947 122.798C911.021 121.026 915.454 120.069 919.955 119.99C924.456 119.911 928.925 120.711 933.069 122.339C937.212 123.966 940.937 126.384 943.999 129.434C947.062 132.484 949.393 136.097 950.839 140.038" stroke="#44B752" stroke-width="15" stroke-linecap="round" stroke-linejoin="round"/>
<path d="M1122.5 100.81C1123.2 99.3387 1123.49 97.7306 1123.36 96.1292C1123.22 94.5277 1122.65 92.9828 1121.71 91.6324C1120.77 90.2821 1119.48 89.1683 1117.96 88.3907C1116.44 87.6131 1114.73 87.1957 1112.99 87.176C1091.46 86.4764 1050.93 83.0008 1010.6 67.1576C970.262 51.3144 939.43 26.7634 923.939 12.92C922.717 11.7772 921.208 10.9318 919.547 10.4594C917.885 9.98702 916.123 9.90234 914.417 10.2129C912.712 10.5235 911.116 11.2197 909.773 12.2393C908.43 13.2589 907.38 14.5701 906.719 16.0559L877.696 79.1688C840.857 159.278 859.306 243.177 918.892 266.581C978.477 289.984 1056.64 244.032 1093.48 163.923L1122.5 100.81Z" stroke="#44B752" stroke-width="20" stroke-linecap="round" stroke-linejoin="round"/>
<path d="M1000.23 403.762C1011.33 405.675 1022.79 404.519 1033.18 400.437C1043.57 396.356 1052.43 389.531 1058.64 380.818" stroke="#44B752" stroke-width="15" stroke-linecap="round" stroke-linejoin="round"/>
<path d="M987.025 351.252C983.363 349.659 979.378 348.799 975.332 348.727C971.285 348.656 967.268 349.376 963.543 350.839C959.818 352.302 956.469 354.475 953.716 357.217C950.963 359.959 948.868 363.208 947.567 366.75" stroke="#44B752" stroke-width="15" stroke-linecap="round" stroke-linejoin="round"/>
<path d="M1066.41 320.099C1062.75 318.506 1058.77 317.646 1054.72 317.575C1050.67 317.504 1046.66 318.223 1042.93 319.686C1039.21 321.15 1035.86 323.323 1033.1 326.065C1030.35 328.807 1028.26 332.055 1026.96 335.597" stroke="#44B752" stroke-width="15" stroke-linecap="round" stroke-linejoin="round"/>
<path d="M872.638 300.332C872.01 299.009 871.746 297.564 871.87 296.124C871.994 294.684 872.502 293.296 873.349 292.082C874.196 290.868 875.354 289.866 876.722 289.167C878.089 288.468 879.623 288.093 881.185 288.075C900.545 287.447 936.974 284.322 973.235 270.08C1009.5 255.837 1037.21 233.767 1051.14 221.322C1052.24 220.295 1053.59 219.535 1055.09 219.11C1056.58 218.685 1058.16 218.609 1059.7 218.888C1061.23 219.168 1062.67 219.793 1063.87 220.71C1065.08 221.627 1066.02 222.805 1066.62 224.141L1092.71 280.877C1125.83 352.893 1109.24 428.315 1055.68 449.354C1002.11 470.393 931.845 429.084 898.728 357.068L872.638 300.332Z" stroke="#44B752" stroke-width="20" stroke-linecap="round" stroke-linejoin="round"/>
<path d="M988.841 576.157C979.137 577.83 969.114 576.819 960.029 573.25C950.944 569.682 943.201 563.715 937.769 556.098" stroke="#44B752" stroke-width="15" stroke-linecap="round" stroke-linejoin="round"/>
<path d="M1000.39 530.249C1003.59 528.856 1007.07 528.104 1010.61 528.042C1014.15 527.98 1017.66 528.609 1020.92 529.888C1024.17 531.167 1027.1 533.068 1029.51 535.465C1031.91 537.862 1033.75 540.702 1034.88 543.799" stroke="#44B752" stroke-width="15" stroke-linecap="round" stroke-linejoin="round"/>
<path d="M930.977 503.015C934.178 501.622 937.662 500.87 941.2 500.808C944.738 500.746 948.25 501.375 951.507 502.654C954.764 503.933 957.691 505.833 960.098 508.23C962.505 510.628 964.337 513.468 965.474 516.565" stroke="#44B752" stroke-width="15" stroke-linecap="round" stroke-linejoin="round"/>
<path d="M1100.39 485.731C1100.94 484.575 1101.17 483.311 1101.06 482.052C1100.96 480.793 1100.51 479.579 1099.77 478.518C1099.03 477.456 1098.02 476.581 1096.82 475.97C1095.63 475.359 1094.29 475.031 1092.92 475.015C1075.99 474.465 1044.14 471.734 1012.44 459.281C980.739 446.829 956.507 427.533 944.331 416.653C943.371 415.755 942.185 415.09 940.879 414.719C939.573 414.348 938.188 414.281 936.848 414.525C935.507 414.769 934.253 415.317 933.197 416.118C932.142 416.919 931.317 417.95 930.797 419.118L907.986 468.722C879.033 531.684 893.533 597.626 940.364 616.02C987.196 634.414 1048.63 598.298 1077.58 535.335L1100.39 485.731Z" stroke="#44B752" stroke-width="20" stroke-linecap="round" stroke-linejoin="round"/>
</svg>
