<svg width="1270" height="803" viewBox="0 0 1270 803" fill="none" xmlns="http://www.w3.org/2000/svg">
<path d="M905.733 246.777C903.178 240.63 907.556 216.721 919.453 188.161C936.537 147.147 969.337 96.3189 1020.42 74.5494C1106.93 37.6779 1213.02 98.2284 1219 113.269C1221.55 119.416 1217.17 143.325 1205.28 171.886C1188.19 212.899 1155.39 263.728 1104.31 285.497C1017.8 322.368 911.714 261.818 905.733 246.777ZM1178.86 160.88C1185.28 145.449 1188.66 132.878 1190.08 125.369C1180.66 118.585 1162.58 109.147 1140.45 101.992L1170.81 178.337C1174.27 171.518 1176.94 165.482 1178.86 160.88ZM1093.64 258.653C1118.71 247.969 1137.97 228.514 1152.15 209.003L1106.41 94.0095C1081.85 90.4498 1055.35 91.1666 1031.17 101.584C1006.29 112.188 987.023 131.643 972.906 151.019L1018.72 266.202C1043.15 269.707 1069.57 268.799 1093.64 258.653ZM984.68 258.219L954.165 181.494C950.573 188.257 947.847 194.429 945.874 199.166C939.446 214.597 936.069 227.169 934.647 234.677C944.068 241.461 962.282 250.954 984.68 258.219Z" fill="#52A9CC"/>
<path d="M1105.69 162.37C1103.21 156.481 1096.47 153.671 1090.54 156.059L1025.44 182.29C1019.39 184.731 1016.5 191.657 1019.04 197.675C1021.51 203.564 1028.26 206.374 1034.19 203.986L1099.28 177.754C1105.34 175.314 1108.22 168.388 1105.69 162.37Z" fill="#52A9CC"/>
<path d="M1183.68 427.601C1185.21 421.122 1177.03 398.233 1160.68 371.968C1137.2 334.251 1096.62 289.386 1042.7 276.149C951.362 253.729 856.447 330.613 852.972 346.422C851.443 352.901 859.624 375.79 875.976 402.055C899.458 439.772 940.034 484.637 993.958 497.874C1085.29 520.294 1180.21 443.41 1183.68 427.601ZM900.273 386.928C891.438 372.737 886.076 360.875 883.46 353.695C891.662 345.479 907.983 333.245 928.671 322.611L911.033 402.856C906.517 396.686 902.908 391.16 900.273 386.928ZM1000.16 469.658C973.695 463.162 951.541 447.073 934.404 430.106L960.972 309.238C984.636 301.759 1010.9 298.188 1036.45 304.565C1062.72 311.012 1084.87 327.101 1101.93 343.944L1075.32 465.012C1051.77 472.415 1025.55 475.786 1000.16 469.658ZM1107.62 451.639L1125.34 370.993C1129.98 377.088 1133.67 382.738 1136.38 387.095C1145.22 401.286 1150.58 413.148 1153.19 420.328C1144.99 428.544 1128.55 440.853 1107.62 451.639Z" fill="#52A9CC"/>
<path d="M972.72 376.584C974.215 370.372 980.419 366.509 986.653 367.909L1055.13 383.287C1061.5 384.717 1065.46 391.087 1063.94 397.434C1062.44 403.647 1056.24 407.509 1050 406.109L981.528 390.732C975.158 389.301 971.192 382.932 972.72 376.584Z" fill="#52A9CC"/>
<path d="M882.465 548.5C884.739 542.243 904.132 527.589 932.209 514.592C972.528 495.928 1031.06 480.659 1083.41 499.16C1172.08 530.495 1209.3 646.836 1203.54 661.961C1201.26 668.218 1181.87 682.872 1153.79 695.869C1113.47 714.534 1054.94 729.803 1002.59 711.302C913.915 679.967 876.702 563.626 882.465 548.5ZM1141.77 669.896C1156.94 662.874 1167.93 655.895 1174.05 651.325C1171.7 639.957 1164.76 620.777 1153.29 600.539L1124.04 677.316C1131.2 674.633 1137.24 671.991 1141.77 669.896ZM1012.87 684.306C1038.57 693.385 1065.91 692.079 1089.55 687.288L1133.61 571.644C1117.92 552.413 1097.92 535.024 1073.06 526.347C1047.56 517.336 1020.21 518.642 996.704 523.372L952.57 639.207C968.198 658.308 988.278 675.506 1012.87 684.306ZM932.892 610.312L962.291 533.152C955.071 535.706 948.89 538.409 944.232 540.565C929.063 547.588 918.074 554.567 911.949 559.137C914.303 570.505 921.303 589.815 932.892 610.312Z" fill="#52A9CC"/>
<path d="M1086.86 621.521C1089.01 615.506 1085.94 608.874 1079.96 606.626L1014.27 581.937C1008.15 579.64 1001.35 582.792 999.143 588.938C996.986 594.952 1000.06 601.584 1006.04 603.832L1071.73 628.522C1077.84 630.819 1084.65 627.667 1086.86 621.521Z" fill="#52A9CC"/>
<path d="M364.287 246.777C366.842 240.63 362.464 216.721 350.567 188.161C333.483 147.147 300.683 96.3189 249.603 74.5494C163.088 37.6779 57.0043 98.2284 51.0225 113.269C48.4674 119.416 52.8458 143.325 64.7428 171.886C81.8271 212.899 114.627 263.728 165.707 285.497C252.222 322.368 358.306 261.818 364.287 246.777ZM91.1634 160.88C84.7356 145.449 81.3591 132.878 79.9367 125.369C89.3579 118.585 107.44 109.147 129.574 101.992L99.2102 178.337C95.7498 171.518 93.0804 165.482 91.1634 160.88ZM176.383 258.653C151.314 247.969 132.048 228.514 117.875 209.003L163.609 94.0095C188.171 90.4498 214.669 91.1666 238.851 101.584C263.731 112.188 282.997 131.643 297.114 151.019L251.304 266.202C226.875 269.707 200.453 268.799 176.383 258.653ZM285.34 258.219L315.855 181.494C319.447 188.257 322.173 194.429 324.146 199.166C330.574 214.597 333.951 227.169 335.373 234.677C325.952 241.461 307.738 250.954 285.34 258.219Z" fill="#52A9CC"/>
<path d="M164.33 162.37C166.808 156.481 173.554 153.671 179.481 156.059L244.575 182.29C250.631 184.731 253.516 191.657 250.984 197.675C248.505 203.564 241.759 206.374 235.832 203.986L170.738 177.754C164.682 175.314 161.797 168.388 164.33 162.37Z" fill="#52A9CC"/>
<path d="M86.3382 427.601C84.8091 421.122 92.9903 398.233 109.342 371.968C132.824 334.251 173.4 289.386 227.325 276.149C318.658 253.729 413.574 330.613 417.049 346.422C418.578 352.901 410.396 375.79 394.044 402.055C370.562 439.772 329.987 484.637 276.062 497.874C184.729 520.294 89.8131 443.41 86.3382 427.601ZM369.747 386.928C378.582 372.737 383.944 360.875 386.56 353.695C378.358 345.479 362.037 333.245 341.349 322.611L358.988 402.856C363.503 396.686 367.112 391.16 369.747 386.928ZM269.86 469.658C296.325 463.162 318.479 447.073 335.617 430.106L309.048 309.238C285.384 301.759 259.118 298.188 233.571 304.565C207.305 311.012 185.151 327.101 168.091 343.944L194.703 465.012C218.246 472.415 244.468 475.786 269.86 469.658ZM162.402 451.639L144.676 370.993C140.038 377.088 136.352 382.738 133.639 387.095C124.805 401.286 119.443 413.148 116.827 420.328C125.029 428.544 141.471 440.853 162.402 451.639Z" fill="#52A9CC"/>
<path d="M297.301 376.584C295.806 370.372 289.602 366.509 283.367 367.909L214.892 383.287C208.521 384.717 204.556 391.087 206.084 397.434C207.579 403.647 213.783 407.509 220.017 406.109L288.493 390.732C294.863 389.301 298.828 382.932 297.301 376.584Z" fill="#52A9CC"/>
<path d="M387.555 548.5C385.281 542.243 365.888 527.589 337.811 514.592C297.492 495.928 238.959 480.659 186.606 499.16C97.9351 530.495 60.7218 646.836 66.4848 661.961C68.7591 668.218 88.1516 682.872 116.228 695.869C156.547 714.534 215.081 729.803 267.434 711.302C356.105 679.967 393.318 563.626 387.555 548.5ZM128.252 669.896C113.082 662.874 102.094 655.895 95.9689 651.325C98.3229 639.957 105.263 620.777 116.732 600.539L145.984 677.316C138.824 674.633 132.776 671.991 128.252 669.896ZM257.148 684.306C231.454 693.385 204.106 692.079 180.471 687.288L136.409 571.644C152.098 552.413 172.104 535.024 196.965 526.347C222.465 517.336 249.814 518.642 273.316 523.372L317.45 639.207C301.822 658.308 281.742 675.506 257.148 684.306ZM337.128 610.312L307.729 533.152C314.949 535.706 321.131 538.409 325.788 540.565C340.957 547.588 351.946 554.567 358.071 559.137C355.717 570.505 348.717 589.815 337.128 610.312Z" fill="#52A9CC"/>
<path d="M183.164 621.521C181.008 615.506 184.078 608.874 190.059 606.626L255.754 581.937C261.865 579.64 268.674 582.792 270.877 588.938C273.034 594.952 269.964 601.584 263.982 603.832L198.288 628.522C192.176 630.819 185.367 627.667 183.164 621.521Z" fill="#52A9CC"/>
</svg>
