<svg width="238" height="188" viewBox="0 0 238 188" fill="none" xmlns="http://www.w3.org/2000/svg">
<path d="M166.142 101.017C160.448 101.999 154.567 101.405 149.236 99.3093C143.905 97.2135 139.362 93.7091 136.174 89.2351M172.912 74.0538C174.791 73.2359 176.835 72.7941 178.911 72.7576C180.987 72.7211 183.048 73.0905 184.959 73.8418C186.87 74.5931 188.588 75.7092 190 77.1172C191.413 78.5251 192.488 80.1931 193.155 82.012M132.187 58.0546C134.065 57.2367 136.11 56.7949 138.186 56.7584C140.262 56.7219 142.322 57.0913 144.233 57.8426C146.144 58.5939 147.862 59.71 149.274 61.118C150.687 62.5259 151.762 64.1939 152.429 66.0128M93.2055 146.465C89.2863 150.41 84.1956 153.198 78.5712 154.479C72.9469 155.76 67.039 155.477 61.5878 153.665M81.1634 121.125C82.1363 119.428 83.4856 117.94 85.123 116.759C86.7604 115.578 88.649 114.73 90.6651 114.271C92.6813 113.812 94.7795 113.752 96.8225 114.095C98.8655 114.438 100.807 115.176 102.52 116.262M38.1969 130.892C39.1698 129.195 40.5191 127.707 42.1565 126.526C43.7939 125.345 45.6825 124.497 47.6986 124.038C49.7148 123.579 51.813 123.519 53.856 123.862C55.899 124.205 57.8406 124.943 59.5538 126.028M105.756 64.2286C104.962 64.3306 104.207 64.613 103.56 65.0504C95.4037 70.3026 79.4096 79.3881 59.7827 83.8577C40.1559 88.3272 21.4302 87.1483 11.5703 85.9989C10.7774 85.8894 9.96755 85.9633 9.21305 86.2139C8.45855 86.4646 7.78293 86.8842 7.24652 87.4354C6.71012 87.9865 6.32965 88.652 6.1391 89.3723C5.94855 90.0927 5.95385 90.8454 6.15453 91.5634L14.3345 122.302C24.7174 161.318 56.6369 187.586 85.6298 180.984C109.399 175.571 123.823 149.745 122.528 119.116M231.591 47.9058C231.913 47.2267 232.048 46.4844 231.985 45.7451C231.921 45.0059 231.66 44.2927 231.226 43.6694C230.792 43.046 230.197 42.5319 229.496 42.1729C228.794 41.814 228.008 41.6213 227.206 41.6122C217.274 41.2893 198.586 39.6849 179.983 32.3714C161.381 25.0579 147.162 13.7247 140.017 7.33435C139.454 6.80679 138.758 6.41654 137.992 6.19848C137.226 5.98042 136.413 5.94133 135.626 6.08471C134.84 6.22808 134.104 6.54946 133.484 7.02012C132.865 7.49078 132.381 8.09607 132.076 8.78192L118.691 37.9159C101.702 74.8957 110.21 113.625 137.69 124.429C165.169 135.232 201.217 114.02 218.206 77.0398L231.591 47.9058Z" stroke="white" stroke-width="12" stroke-linecap="round" stroke-linejoin="round"/>
</svg>
