<svg width="207" height="202" viewBox="0 0 207 202" fill="none" xmlns="http://www.w3.org/2000/svg">
<path d="M198.894 7.73806C195.217 4.03725 176.602 0 152.356 0C117.539 0 70.8857 8.41093 39.7454 38.8024C-12.9979 90.2773 -1.16224 185.265 7.91558 194.124C11.5927 197.825 30.2079 201.862 54.4537 201.862C89.2712 201.862 135.924 193.451 167.065 163.06C219.808 111.585 207.972 16.5976 198.894 7.73806ZM54.4537 179.433C41.3541 179.433 31.2421 178.087 25.3818 176.854C23.3134 167.994 21.9345 152.07 23.4283 133.902L69.5068 178.872C63.5316 179.321 58.3606 179.433 54.4537 179.433ZM150.862 147.247C135.579 162.163 115.7 170.237 97.3148 174.611L27.9097 106.875C32.7359 88.0344 41.2392 69.0818 56.0625 54.7271C71.2305 39.9239 91.1097 31.8494 109.38 27.4757L178.9 95.3239C174.074 114.052 165.456 132.893 150.862 147.247ZM183.382 68.2968L137.073 23.102C143.049 22.5413 148.334 22.4291 152.356 22.4291C165.456 22.4291 175.568 23.7749 181.428 25.0085C183.497 33.868 184.875 49.9049 183.382 68.2968Z" fill="white"/>
<path d="M77.5793 126.953C74.0658 123.386 74.0658 117.659 77.5793 114.091L116.171 74.9059C119.761 71.2605 125.641 71.2605 129.231 74.9059C132.744 78.4735 132.744 84.2006 129.231 87.7682L90.6395 126.953C87.0492 130.599 81.1695 130.599 77.5793 126.953Z" fill="white"/>
</svg>
