<svg width="100" height="82" viewBox="0 0 100 82" fill="none" xmlns="http://www.w3.org/2000/svg">
<path d="M99.9884 68.4747C99.8619 68.6476 99.6846 68.7421 99.4898 68.8221C97.2657 69.7408 94.95 70.1725 92.5471 70.0562C89.8434 69.9254 87.2893 69.2393 85.0042 67.7522C81.9093 65.7374 80.0123 62.8897 79.2652 59.276C79.2419 59.1626 79.2143 59.0506 79.1779 58.8893C79.1067 58.991 79.0529 59.0579 79.0108 59.1321C77.7403 61.3416 75.8374 62.6586 73.3197 63.0031C71.2919 63.2808 69.4051 62.8418 67.793 61.5219C65.659 59.7746 64.9656 56.7292 66.1053 54.2187C67.242 51.7112 70.2322 50.5672 72.7441 51.6763C74.7806 52.5746 75.7502 54.9121 74.9464 56.9806C74.2442 58.789 72.2237 59.6612 70.4415 58.9271C69.0634 58.3587 68.3541 56.8266 68.8178 55.4194C68.9515 55.0139 69.1826 54.8525 69.4981 54.9426C69.8077 55.0313 69.9095 55.3031 69.7859 55.7087C69.4196 56.9167 70.206 58.0505 71.4867 58.161C72.8735 58.2802 74.0015 57.3252 74.1905 55.9151C74.3823 54.4833 73.5654 52.8232 71.6757 52.3755C69.6842 51.9031 67.6723 52.9584 66.9266 54.8685C65.8349 57.661 67.3031 60.7383 70.1929 61.7181C73.6337 62.8854 77.3274 61.0829 78.5805 57.629C80.1344 53.3451 77.9888 48.5975 73.7442 46.9301C68.0008 44.6741 61.6702 47.6569 59.6787 53.5573C58.0579 58.3616 59.2411 63.6035 62.7706 67.2507C62.8346 67.3176 62.9043 67.3815 62.9552 67.4586C63.0918 67.6621 63.0613 67.9339 62.8942 68.0967C62.7183 68.2697 62.4639 68.2959 62.2575 68.149C62.163 68.0822 62.083 67.9964 62.0031 67.9121C59.9025 65.6982 58.6015 63.0903 58.1262 60.074C58.0942 59.8705 58.0622 59.667 57.9779 59.4431C57.9358 59.526 57.8892 59.6074 57.8514 59.6917C56.8833 61.9143 55.2203 63.3258 52.8509 63.8288C50.8928 64.2445 49.0467 63.9015 47.4448 62.6557C45.3413 61.0203 44.709 58.0447 45.9243 55.7116C47.0334 53.5835 49.6441 52.6662 51.8435 53.63C53.7347 54.4586 54.6142 56.6623 53.8132 58.5651C53.1445 60.1554 51.3057 60.907 49.7154 60.2397C48.4449 59.7062 47.798 58.2497 48.2617 56.9734C48.3475 56.7379 48.474 56.5605 48.7501 56.5489C49.0554 56.5358 49.288 56.7641 49.2691 57.0693C49.2618 57.1711 49.224 57.2714 49.1964 57.3717C48.958 58.2075 49.3796 59.0419 50.1936 59.3428C51.4467 59.8051 52.7709 59.0274 53.0413 57.6726C53.3597 56.0736 52.3203 54.6068 50.6675 54.319C48.6411 53.9672 46.8299 55.2421 46.417 57.3121C45.9272 59.7658 47.3866 62.0786 49.8549 62.7575C53.0152 63.6267 56.1827 61.8402 57.1551 58.6393C58.3413 54.7348 56.2146 50.6384 52.3116 49.3083C47.2529 47.5843 41.838 50.2401 40.1474 55.3482C38.7447 59.5885 39.5166 63.477 42.2858 66.9759C42.3585 67.0675 42.4413 67.1504 42.5024 67.2492C42.6346 67.4615 42.5925 67.7231 42.4151 67.883C42.232 68.0473 41.9413 68.0502 41.745 67.883C41.684 67.8307 41.6316 67.7667 41.5793 67.7042C39.9556 65.7694 38.9569 63.5555 38.6008 61.0538C38.5862 60.952 38.5615 60.8517 38.5295 60.6889C38.422 60.8372 38.3493 60.936 38.2766 61.0363C36.7924 63.0598 34.7893 64.0599 32.2861 63.9858C30.8194 63.9422 29.4849 63.4668 28.3627 62.4813C26.5137 60.859 25.9351 58.113 26.9948 55.8933C28.1926 53.3814 31.2061 52.5964 33.388 53.848C35.0277 54.7885 35.6993 56.8251 34.9725 58.568C34.3023 60.1743 32.4446 60.9317 30.8514 60.2455C29.6187 59.715 28.9892 58.3456 29.3934 57.0693C29.4035 57.0359 29.4108 57.0025 29.4239 56.969C29.5503 56.6347 29.8149 56.4835 30.0955 56.5838C30.3804 56.6856 30.4836 56.9487 30.3789 57.3005C30.046 58.4096 30.7452 59.4082 31.9082 59.4809C33.0784 59.5551 34.045 58.7526 34.218 57.5665C34.452 55.9544 33.3778 54.5749 31.7381 54.3118C30.1274 54.053 28.0822 54.9455 27.585 57.2772C27.0646 59.7251 28.4979 62.0495 30.9604 62.7575C34.0654 63.6485 37.2372 61.9303 38.2621 58.8006C39.5355 54.9107 37.4713 50.7489 33.5799 49.3635C28.4427 47.5363 22.9159 50.2648 21.2529 55.5125C20.0537 59.292 20.7151 62.8287 22.8665 66.1183C23.0249 66.361 23.2212 66.5791 23.3767 66.8233C23.4537 66.944 23.5177 67.098 23.5162 67.2361C23.5133 67.4309 23.3883 67.5763 23.1935 67.6504C23.0104 67.7202 22.8476 67.681 22.7051 67.5632C22.6252 67.4978 22.5612 67.412 22.4987 67.3292C20.9825 65.3464 20.0507 63.1223 19.7746 60.6395C19.699 59.9606 19.7135 59.2731 19.6873 58.5884C19.683 58.4895 19.6873 58.3907 19.6873 58.2337C19.5769 58.3369 19.51 58.3936 19.4489 58.4576C18.2337 59.7499 16.7481 60.5479 14.9921 60.7674C12.8363 61.0363 10.868 60.5595 9.25449 59.0317C7.3444 57.2234 6.8647 54.287 8.0596 51.9757C9.2574 49.6615 12.1211 48.6832 14.4876 49.7793C16.466 50.6965 17.363 53.0456 16.498 55.0458C15.7799 56.7059 13.8684 57.4938 12.188 56.8222C10.8244 56.2771 10.1194 54.7784 10.5744 53.3872C10.5962 53.3204 10.6166 53.2535 10.6471 53.191C10.7765 52.9293 11.0265 52.8261 11.2852 52.9235C11.5266 53.0136 11.6516 53.2491 11.5949 53.5137C11.5774 53.5922 11.544 53.6678 11.5207 53.7463C11.2663 54.617 11.6952 55.5168 12.5325 55.8701C13.6881 56.3585 15.0226 55.8366 15.5517 54.6868C16.2407 53.191 15.5619 51.3885 14.0486 50.6893C12.0746 49.7764 9.6935 50.6994 8.82567 52.7142C7.65839 55.4238 9.06116 58.5143 11.8987 59.4838C15.2537 60.6308 18.8442 58.8835 20.0624 55.5226C21.5902 51.3085 19.4068 46.4984 14.8917 44.9764C9.56412 43.1812 3.82221 45.9271 1.8467 51.2475C-0.655032 57.9866 2.76686 65.4612 9.51179 67.9906C9.60919 68.0269 9.70949 68.0589 9.80543 68.1025C10.0918 68.229 10.2168 68.4863 10.1238 68.7494C10.0322 69.0111 9.76473 69.1433 9.47109 69.0445C9.14111 68.934 8.81259 68.8134 8.49714 68.6694C3.9574 66.5864 1.17511 63.0991 0.247685 58.193C-0.325053 55.165 0.0921441 52.2272 1.53416 49.4987C3.28 46.1975 6.05211 44.2263 9.73129 43.5867C12.1894 43.1594 14.5632 43.5082 16.7568 44.7089C19.4388 46.1771 20.9854 48.4739 21.4637 51.4917C21.487 51.6399 21.5029 51.7911 21.5175 51.9408C21.532 52.0877 21.5393 52.2359 21.5567 52.4772C23.9349 49.2211 27.0806 47.686 31.0621 47.7907C31.0127 47.654 30.9735 47.5392 30.9284 47.4258C30.3804 46.0681 30.0853 44.6537 29.9646 43.1972C29.7524 40.6475 30.0795 38.1443 30.629 35.6614C30.6566 35.5364 30.6813 35.4129 30.7118 35.2689C30.2103 34.9419 29.9079 34.4956 29.9835 33.8749C30.0577 33.2731 30.4342 32.901 30.9996 32.7004C31.0069 32.5492 31.0127 32.4111 31.02 32.2352C30.924 32.273 30.8528 32.2919 30.7889 32.3253C29.0445 33.2527 26.6401 32.1959 26.5907 29.8541C26.5529 28.0283 27.931 26.4569 29.8004 26.3246C31.7236 26.1895 33.3662 26.848 34.6265 28.3379C35.2981 29.1316 35.6484 30.0765 35.7473 31.1057C35.7967 31.6232 35.788 32.1465 35.8083 32.7163C36.3258 32.9228 36.7241 33.3051 36.7604 33.9447C36.7968 34.5843 36.4828 35.0276 35.8781 35.3242C35.9028 35.5858 35.9217 35.8606 35.958 36.1339C36.2299 38.1486 36.9509 39.9715 38.2999 41.5167C39.4759 42.8643 40.9542 43.7568 42.6288 44.3412C44.2656 44.9125 45.962 45.1625 47.6919 45.2119C47.7369 45.2119 47.782 45.2046 47.8547 45.1988C47.782 45.0549 47.6468 45.0389 47.5422 44.991C45.9097 44.2423 44.3601 43.3571 42.9399 42.2523C41.2115 40.9091 39.7695 39.3188 38.7592 37.3637C37.6559 35.2282 37.2024 32.9518 37.3463 30.5577C37.544 27.2477 38.6429 24.2576 40.5734 21.5669C40.9877 20.9898 41.4514 20.4504 42.0139 20.0114C42.2581 19.8196 42.5343 19.664 42.8076 19.5128C43.0373 19.3864 43.3004 19.3529 43.5548 19.4067C43.9633 19.4925 44.1537 19.5768 44.1959 20.0492C44.2278 20.3996 44.3529 20.7281 44.5549 21.0203C44.914 21.5392 45.4634 21.7108 46.0565 21.4927C46.3792 21.3735 46.6554 21.1816 46.8895 20.9345C47.0421 20.7732 47.2064 20.6612 47.4579 20.6612C47.3416 20.6133 47.2253 20.5609 47.1075 20.5188C44.5069 19.5855 41.9064 18.6523 39.3058 17.719C39.2724 17.7074 39.2404 17.6958 39.2084 17.6827C38.8363 17.5446 38.7432 17.3425 38.8886 16.9864C39.0209 16.6608 39.2055 16.5765 39.5471 16.6986C41.1098 17.2582 42.6724 17.8208 44.2351 18.3819C46.7485 19.2832 49.2618 20.1859 51.7752 21.0857C51.8828 21.1249 51.9918 21.1584 52.1401 21.2078V14.7056C52.4758 14.6111 52.784 14.6824 53.1285 14.6504C53.1358 14.8132 53.1474 14.9484 53.1474 15.0821C53.1474 17.0809 53.1474 19.0797 53.1474 21.077C53.1474 21.17 53.1547 21.263 53.1474 21.3561C53.1344 21.5203 53.1998 21.6076 53.3611 21.6599C53.7245 21.7791 54.0836 21.9172 54.4441 22.0466C59.4926 23.8578 64.5397 25.6705 69.5882 27.4818C69.9691 27.6184 70.0679 27.8161 69.9371 28.165C69.8092 28.508 69.6187 28.5952 69.2553 28.4644C67.7246 27.9178 66.1954 27.3684 64.6647 26.8203C64.326 26.6997 63.9873 26.579 63.6806 26.4686C63.5221 26.6677 63.3768 26.8494 63.2009 27.0704C63.2619 27.1198 63.3535 27.1881 63.4378 27.2637C65.6096 29.2465 67.7799 31.2293 69.9502 33.2135C70.0272 33.2847 70.1231 33.3443 70.1711 33.4315C70.2075 33.4984 70.2104 33.6147 70.1755 33.6801C70.1231 33.7731 70.017 33.763 69.9327 33.6961C69.8513 33.6307 69.7743 33.5595 69.6972 33.4897C67.4833 31.4677 65.2709 29.4442 63.057 27.4222C62.9814 27.3524 62.8985 27.2884 62.8011 27.207C62.4028 27.4469 62.0089 27.6824 61.5975 27.9295C61.6992 28.1243 61.7836 28.2885 61.8693 28.4513C62.9436 30.485 64.0178 32.5172 65.0921 34.5508C65.14 34.6424 65.2011 34.7369 65.2156 34.8358C65.2243 34.8954 65.1662 34.9884 65.111 35.0247C65.0732 35.0509 64.9685 35.0262 64.9278 34.9884C64.8638 34.9273 64.8231 34.8372 64.7795 34.7558C63.6835 32.6815 62.5874 30.6071 61.4914 28.5327C61.4274 28.4106 61.3591 28.2914 61.269 28.1272C60.8503 28.3961 60.4491 28.6447 60.061 28.9107C60.0014 28.9514 59.9781 29.072 59.9709 29.1593C59.8458 30.501 59.7281 31.8427 59.6045 33.1844C59.4781 34.5727 59.3458 35.9594 59.2193 37.3477C59.1147 38.4931 59.0115 39.6372 58.9082 40.7826C58.8821 41.0719 58.8588 41.3612 58.8312 41.6505C58.8254 41.7072 58.8283 41.7769 58.7963 41.8176C58.7513 41.8758 58.6626 41.9601 58.6233 41.947C58.5521 41.9223 58.4896 41.8394 58.4489 41.7668C58.4256 41.7246 58.4533 41.6534 58.4591 41.5967C58.6146 39.8857 58.7687 38.1733 58.9271 36.4624C59.0769 34.8314 59.231 33.2019 59.3821 31.5709C59.449 30.8426 59.5115 30.1129 59.5755 29.3846C59.5784 29.3541 59.5624 29.3221 59.5479 29.261C59.4577 29.3148 59.3778 29.3555 59.3051 29.4049C57.4473 30.6681 55.671 32.0331 54.0705 33.6176C53.8234 33.8633 53.5864 34.1191 53.3364 34.3619C53.2027 34.4927 53.1474 34.6352 53.1474 34.8256C53.1518 38.0091 53.1503 41.1926 53.1518 44.3761C53.1518 44.4546 53.1663 44.5331 53.1794 44.6624C56.7234 43.8208 59.84 42.2407 62.4508 39.6706C62.3403 39.6633 62.2313 39.6517 62.1208 39.6502C61.7836 39.6473 61.4463 39.6546 61.1091 39.6473C60.7282 39.6386 60.6047 39.5165 60.6017 39.1444C60.5974 38.5513 60.5974 37.9597 60.6017 37.3666C60.6032 37.0148 60.6672 36.9319 61.0175 36.8229C63.2576 36.1266 65.4962 35.4332 67.7363 34.7398C68.5794 34.4782 69.4225 34.2194 70.2656 33.9607C70.3543 33.933 70.443 33.8996 70.5345 33.8894C70.7787 33.8618 70.9401 33.9897 70.9706 34.231C70.9808 34.311 70.975 34.3939 70.975 34.4753C70.975 35.9972 70.975 37.5192 70.975 39.0412C70.975 39.0877 70.975 39.1342 70.975 39.1807C70.9634 39.5151 70.8471 39.6343 70.5055 39.6488C70.2961 39.6575 70.0868 39.6575 69.8775 39.6488C69.7219 39.643 69.6245 39.6895 69.5475 39.8392C68.5721 41.7275 67.5894 43.6114 66.6097 45.4954C66.5995 45.5143 66.5995 45.539 66.5864 45.6044C66.6795 45.5884 66.7623 45.5811 66.8408 45.5608C69.4021 44.9139 71.9155 45.0506 74.3504 46.0914C76.9887 47.2208 78.7447 49.1818 79.6576 51.8972C79.6983 52.0179 79.7376 52.1385 79.803 52.3377C79.88 52.1589 79.9309 52.0412 79.9803 51.9234C81.2276 48.9463 83.3673 46.8952 86.4258 45.8719C89.2881 44.9154 92.1052 45.1218 94.7465 46.6074C97.1523 47.9608 98.5493 50.0758 98.9534 52.8072C99.2441 54.7827 98.901 56.6594 97.8181 58.3529C95.8266 61.4666 91.8407 62.3475 88.8302 60.7456C86.2674 59.3821 85.183 56.2466 86.327 53.582C87.3373 51.2286 90.0759 50.1485 92.4192 51.1806C94.3293 52.0223 95.1986 54.287 94.3395 56.187C93.6301 57.7554 91.7549 58.4619 90.1995 57.7453C89.0162 57.2002 88.4144 55.8788 88.788 54.6316C88.8171 54.5327 88.8534 54.4324 88.9043 54.3423C89.0279 54.1213 89.2663 54.0356 89.5017 54.1141C89.7198 54.1867 89.8506 54.3859 89.8303 54.6286C89.823 54.7086 89.7983 54.7885 89.7721 54.8641C89.464 55.7276 89.9829 56.8149 91.1444 56.9836C92.2157 57.1391 93.1679 56.5547 93.5153 55.5285C93.9586 54.2216 93.367 52.7811 92.1329 52.1589C90.3013 51.2373 88.0248 52.1124 87.2297 54.0443C86.1874 56.5794 87.5611 59.4141 90.2373 60.247C93.4033 61.2311 96.6697 59.4838 97.6931 56.2611C98.9054 52.438 96.9081 48.3678 93.117 46.9388C88.1019 45.0476 82.5737 47.6424 80.7508 52.7418C78.5151 58.9969 81.7204 65.7985 88.0016 68.1243C90.0817 68.8948 92.2302 69.1913 94.4398 69.0256C96.049 68.9035 97.6015 68.5226 99.0944 67.9019C99.1264 67.8888 99.1583 67.8728 99.1903 67.8598C99.5799 67.7013 99.7369 67.7406 100 68.0618V68.4805L99.9884 68.4747ZM64.986 39.8756C64.6545 39.8756 64.3871 39.8901 64.1225 39.8712C63.8565 39.8538 63.6719 39.9526 63.4858 40.1401C61.8839 41.7566 60.0523 43.0547 57.9968 44.0272C54.463 45.6989 50.7489 46.4519 46.8357 46.1757C45.3937 46.0739 43.9764 45.8413 42.5998 45.3951C40.6969 44.7802 39.0121 43.8106 37.6588 42.3191C36.1528 40.6591 35.317 38.685 34.9841 36.4857C34.9303 36.1339 34.8954 35.7777 34.8504 35.4143H34.0378C34.0189 35.4652 34.0014 35.4957 33.9971 35.5277C33.9767 35.6658 33.9534 35.8039 33.9447 35.942C33.8662 37.1282 33.8997 38.31 34.1439 39.4787C34.6367 41.8467 35.801 43.7961 37.7576 45.2468C39.3668 46.4402 41.1926 47.1496 43.1478 47.4781C44.5069 47.7064 45.8952 47.7718 47.2703 47.9026C47.4302 47.9171 47.5945 47.8924 47.7558 47.8721C48.5423 47.7718 49.3287 47.7311 50.1195 47.8154C50.4306 47.8488 50.746 47.891 51.0556 47.8721C51.5644 47.8401 52.0732 47.7747 52.5791 47.702C54.8569 47.3764 57.004 46.6641 58.994 45.5012C61.3504 44.1246 63.2561 42.261 64.8638 40.0747C64.8958 40.0296 64.922 39.9817 64.9889 39.8741L64.986 39.8756ZM40.5283 52.3144C41.8468 50.4523 43.5679 49.1484 45.6873 48.3416C45.5579 48.2922 45.4373 48.2733 45.3152 48.2602C44.6 48.1803 43.8775 48.1396 43.1696 48.0145C41.7348 47.7602 40.3553 47.3168 39.0543 46.6481C36.4915 45.3311 34.7268 43.3323 33.8938 40.5544C33.4141 38.9539 33.3109 37.3171 33.4621 35.66C33.4694 35.5844 33.4621 35.5073 33.4621 35.4187H32.8385C32.8254 35.5393 32.8123 35.6396 32.8051 35.7414C32.7048 37.1572 32.7077 38.5716 32.8022 39.9875C32.9155 41.6839 33.1728 43.3556 33.6584 44.9866C34.0886 46.4315 34.6948 47.7936 35.5903 49.0176C35.7632 49.2545 35.9726 49.4464 36.195 49.6354C36.6703 50.0409 37.1166 50.4814 37.5745 50.9088C37.6675 50.996 37.746 51.1021 37.8507 51.1719C38.6618 51.7068 39.5456 52.0789 40.5254 52.3173L40.5283 52.3144ZM56.3048 50.746C56.4036 50.698 56.4661 50.6704 56.5272 50.6384C58.3617 49.6862 59.9563 48.4201 61.3867 46.9388C63.3695 44.8863 64.9671 42.5517 66.3945 40.0936C66.4265 40.0384 66.4411 39.9715 66.4789 39.8683C66.2594 39.8683 66.0747 39.8785 65.8901 39.8654C65.7084 39.8523 65.5921 39.9177 65.486 40.0704C65.2403 40.4236 64.9801 40.7652 64.7141 41.1024C61.6208 45.0142 57.6654 47.468 52.691 48.2006C52.6314 48.2093 52.5776 48.2471 52.4657 48.2936C53.9818 48.7937 55.2465 49.5888 56.3033 50.746H56.3048ZM31.7555 32.6538H34.9841C35.003 32.5128 35.0335 32.3893 35.0321 32.2657C35.0248 31.8834 35.0291 31.4982 34.9841 31.1202C34.8227 29.78 34.2049 28.6999 33.0784 27.9397C32.1466 27.3102 31.1101 27.0122 29.9821 27.0646C28.5953 27.1271 27.4774 28.1897 27.3408 29.5677C27.1867 31.1188 28.6098 32.2802 30.0867 31.8064C30.6304 31.6319 31.0084 31.2729 31.1799 30.7234C31.4866 29.7378 30.7496 28.8845 29.7684 29.0837C29.2843 29.1811 28.9674 29.6041 29.0314 30.0678C29.0765 30.3978 29.357 30.6289 29.6884 30.6086C29.7451 30.6056 29.8018 30.5809 29.8585 30.5737C30.0926 30.5446 30.2684 30.6551 30.3106 30.8528C30.3586 31.081 30.2481 31.2467 30.001 31.3165C29.2567 31.5287 28.4485 31.0403 28.2944 30.2858C28.1505 29.575 28.4776 28.8685 29.1244 28.5211C30.1245 27.9862 31.5767 28.4164 31.9198 29.7044C32.0434 30.1652 32.0201 30.6231 31.8602 31.0737C31.8268 31.1697 31.7991 31.2714 31.7948 31.3717C31.7861 31.5549 31.802 31.7395 31.7962 31.9226C31.789 32.1538 31.7701 32.3835 31.7541 32.6567L31.7555 32.6538ZM70.19 34.7689C67.2246 35.6876 64.2926 36.5947 61.3446 37.5076C61.3446 37.9073 61.3446 38.278 61.3446 38.6487C61.3446 38.7156 61.3591 38.7824 61.3678 38.8696H70.1886V34.7689H70.19ZM58.3341 54.5385C58.4314 54.2056 58.5216 53.8698 58.6262 53.5399C59.6423 50.3244 61.6266 47.9186 64.6443 46.3894C64.9176 46.2513 65.188 46.1408 65.2578 45.7992C65.2709 45.7352 65.3276 45.68 65.3595 45.6175C66.3189 43.8135 67.2784 42.011 68.2363 40.2055C68.277 40.1285 68.2988 40.0413 68.3439 39.9177H67.0836C67.0094 40.0442 66.928 40.1837 66.8466 40.3247C65.6125 42.4471 64.2504 44.4807 62.6296 46.3327C60.9622 48.2369 59.0754 49.8709 56.8223 51.0541C56.7728 51.0803 56.7278 51.1152 56.658 51.1602C57.4386 52.1763 57.9808 53.2971 58.3326 54.5371L58.3341 54.5385ZM31.7294 35.4187C31.7076 35.4899 31.6959 35.5219 31.6872 35.5568C31.0578 38.2053 30.7176 40.8786 31.0113 43.6013C31.1639 45.0186 31.5244 46.3821 32.1306 47.6787C32.2294 47.8881 32.3675 47.9811 32.587 48.0436C33.2223 48.2224 33.8488 48.4332 34.4782 48.6323C34.5611 48.6585 34.6425 48.689 34.7573 48.7297C34.7195 48.6469 34.7064 48.6018 34.6817 48.564C33.8066 47.1453 33.2528 45.6 32.8777 43.985C32.2469 41.2696 32.1349 38.5179 32.3021 35.7457C32.3079 35.6454 32.3021 35.5437 32.3021 35.4187H31.7279H31.7294ZM50.3913 45.1407C50.9684 45.0564 51.547 44.9721 52.1255 44.8863V35.8141C52.0427 35.9013 51.9932 35.9449 51.9554 35.9972C51.2213 36.977 50.5905 38.0178 50.1529 39.1647C49.6383 40.5123 49.413 41.8947 49.695 43.3309C49.8186 43.9603 50.0221 44.5607 50.3913 45.1407ZM57.1232 24.1166C57.097 24.2954 57.0796 24.4204 57.0592 24.5454C57.0112 24.8419 56.9371 25.1385 56.9167 25.4365C56.8804 25.9772 56.9604 26.502 57.2293 26.9846C57.459 27.396 57.8006 27.6605 58.2774 27.6998C58.5521 27.7231 58.837 27.7318 59.1088 27.6882C59.8807 27.5675 60.5538 27.2361 61.0204 26.5907C61.2137 26.3246 61.3344 26.0063 61.5016 25.6865C60.0261 25.1574 58.587 24.6413 57.1246 24.1151L57.1232 24.1166ZM51.6429 22.1483C50.4204 21.7093 49.2139 21.2776 48.0073 20.8458C48.1483 21.0784 48.1338 21.2979 48.1193 21.5305C48.0858 22.0582 48.1629 22.5728 48.4202 23.0467C48.8025 23.7517 49.4683 23.9654 50.1893 23.6121C50.6501 23.3868 50.9917 23.0278 51.2839 22.6135C51.3885 22.4652 51.5048 22.3271 51.6444 22.1469L51.6429 22.1483ZM53.194 22.708C53.1634 22.7865 53.1474 22.8083 53.1474 22.8301C53.1445 23.7124 53.1445 24.5963 53.1387 25.4786C53.1387 25.6327 53.2143 25.7083 53.3451 25.7606C53.6911 25.9002 54.0298 25.8638 54.3612 25.7214C54.822 25.5222 55.184 25.1937 55.4602 24.7823C55.6826 24.4509 55.8687 24.0977 56.0794 23.7401C55.107 23.3926 54.1606 23.0539 53.194 22.708ZM39.4264 54.3292C39.5471 54.0777 39.6663 53.8175 39.7957 53.5617C39.9279 53.2986 40.069 53.0413 40.2027 52.7869C39.6183 52.5703 39.0732 52.3682 38.5383 52.1705C38.8348 52.8901 39.1284 53.6024 39.4279 54.3292H39.4264Z" fill="#313131"/>
<path d="M35.4683 81.162C35.3157 81.1126 35.1645 81.0574 35.0104 81.0152C33.657 80.6445 32.8677 79.3173 33.2428 78.0279C33.439 77.3549 33.8722 76.8665 34.4973 76.5641C35.4029 76.128 36.3143 76.1367 37.2127 76.5961C37.3435 76.663 37.4598 76.7575 37.6052 76.8534C37.4961 76.9741 37.4118 77.0671 37.3246 77.1645C37.124 77.0613 36.9423 76.9581 36.7533 76.8723C35.9233 76.4943 34.9057 76.6688 34.2618 77.2953C33.5829 77.9567 33.4753 78.9219 33.9928 79.7127C34.6528 80.7201 36.089 81.0108 37.0731 80.3334C37.1342 80.2913 37.2112 80.2171 37.2127 80.1561C37.2257 79.7534 37.2185 79.3508 37.2185 78.9045H35.5541C35.6137 78.7373 35.6529 78.6239 35.6922 78.5135H37.6938V79.2243C37.6938 79.5499 37.6749 79.877 37.6996 80.1997C37.7185 80.4381 37.624 80.5747 37.422 80.6576C37.1124 80.7855 36.7998 80.9076 36.4873 81.0283C36.3594 81.0777 36.2271 81.117 36.0963 81.1606H35.4683V81.162Z" fill="#313131"/>
<path d="M23.906 11.445C23.7577 11.445 23.6312 11.4479 23.5048 11.445C22.7808 11.4232 22.1834 11.1252 21.6862 10.6121C21.6223 10.5467 21.5583 10.4667 21.5365 10.3824C21.5162 10.3025 21.522 10.1818 21.57 10.128C21.6179 10.0757 21.7328 10.0786 21.82 10.0757C21.8607 10.0742 21.9101 10.1048 21.9435 10.1338C22.1936 10.3432 22.4218 10.2458 22.634 10.0757C22.7692 9.96668 22.9044 9.85184 23.0149 9.71956C23.4989 9.1381 23.9191 8.52902 24.1458 7.7833C24.5688 6.3907 25.4425 5.30773 26.6185 4.46316C27.5677 3.7814 28.5867 3.23192 29.6988 2.86706C30.0389 2.75512 30.3951 2.68971 30.7439 2.60249C30.7977 2.58941 30.8515 2.57342 30.9024 2.55888C30.837 1.65617 31.1146 1.11395 31.7426 0.900268C32.2717 0.720015 32.7383 0.916258 33.1497 1.51807C33.4957 1.30293 33.8795 1.18228 34.2908 1.30293C34.7168 1.42794 34.9653 1.73612 35.0744 2.18675C35.1877 2.14168 35.2793 2.10244 35.3724 2.06755C35.7648 1.92073 36.1515 1.93236 36.5106 2.15477C37.1749 2.56615 37.1516 3.48776 36.7068 3.83519C36.6617 3.87007 36.6239 3.91223 36.5643 3.97037C36.6821 4.06632 36.7882 4.15208 36.8943 4.24075C37.9831 5.14638 38.8538 6.21917 39.4106 7.53036C39.7406 8.30952 39.8525 9.11484 39.6475 9.94778C39.5327 10.4159 39.3088 10.8345 39.0457 11.2343C38.8989 11.4567 38.7521 11.6805 38.6067 11.9044C38.4875 12.089 38.4846 12.2649 38.6169 12.4524C38.7303 12.6123 38.8262 12.7882 38.912 12.9641C39.0879 13.3261 39.0559 13.5848 38.8262 13.8319C38.5704 14.1052 38.2695 14.2026 37.9133 14.0572C37.752 13.9918 37.5964 13.9148 37.4365 13.8436C37.3217 13.7927 37.2054 13.7418 37.1124 13.7011C36.9888 13.8014 36.8943 13.9351 36.7795 13.9569C36.6312 13.9846 36.451 13.9569 36.3114 13.8959C35.6413 13.6023 35.0671 13.1807 34.6223 12.5891C34.3999 12.2925 34.1702 11.9989 33.9158 11.73C33.7428 11.5468 33.5291 11.3971 33.3183 11.2546C33.1221 11.1223 33.016 11.1412 32.8692 11.3258C32.7689 11.4509 32.6889 11.5962 32.6191 11.7416C32.561 11.8637 32.5028 11.9771 32.3546 11.9829C32.2063 11.9887 32.1278 11.8782 32.0697 11.7619C32.0072 11.6384 31.9432 11.5134 31.8981 11.3825C31.683 10.7633 31.885 10.2516 32.4592 9.94342C32.5508 9.89399 32.6468 9.85329 32.7689 9.79369C32.7151 9.72392 32.6787 9.6556 32.6235 9.60908C31.9679 9.04797 31.2295 8.69037 30.3442 8.7209C30.1596 8.72671 29.9677 8.74125 29.7962 8.80085C28.7597 9.15845 27.9994 9.80096 27.7073 10.8999C27.6055 11.2808 27.652 11.6631 27.764 12.0338C27.9907 12.7809 28.3774 13.438 28.9574 13.9671C29.3688 14.3422 29.8325 14.6213 30.4212 14.5965C30.8253 14.5791 31.1582 14.4032 31.4402 14.1256C31.6176 13.9511 31.6263 13.8218 31.4504 13.6444C31.3138 13.5063 31.1437 13.4002 30.9823 13.2868C30.9067 13.2345 30.8137 13.2083 30.7352 13.1574C30.5404 13.031 30.5259 12.842 30.7178 12.7068C31.3283 12.2722 32.1104 12.0846 32.8677 12.6937C34.1353 13.7127 33.9725 15.8074 32.6918 16.6026C32.4171 16.7727 32.1249 16.9151 31.8647 17.0576C31.9606 17.3817 32.1075 17.7045 32.1482 18.0388C32.279 19.1101 31.7222 20.1568 30.3733 20.3704C29.754 20.4693 29.1696 20.3574 28.6579 19.9692C28.3192 19.7134 28.1027 19.3747 28.03 18.959C28.0096 18.8456 28.0271 18.6871 28.0954 18.6057C28.216 18.4633 28.3599 18.5563 28.4951 18.645C28.783 18.8325 28.9836 18.7874 29.1798 18.5229C29.2845 18.3819 29.299 18.2394 29.1842 18.11C29.0373 17.9472 28.8862 17.7829 28.7117 17.6507C28.3701 17.3905 28.0024 17.1637 27.6622 16.902C27.0924 16.463 26.5036 16.0429 25.9774 15.5545C24.941 14.5907 24.3799 13.3479 24.0368 11.996C23.9917 11.8186 23.9525 11.6384 23.9074 11.4509L23.906 11.445ZM32.75 7.40244C31.7542 8.13508 30.8181 8.17578 29.9052 7.42424C29.754 7.73678 29.613 8.02606 29.4734 8.31388C29.4778 8.31679 29.488 8.32987 29.4967 8.32841C29.5418 8.32405 29.5883 8.31824 29.6333 8.30952C31.1713 7.97663 32.3851 8.54065 33.3823 9.67885C33.6265 9.9565 33.5553 10.1091 33.1991 10.2138C32.9796 10.2792 32.7572 10.3606 32.5624 10.4769C32.3502 10.6034 32.2688 10.8098 32.4055 11.0991C32.4694 11.0642 32.4854 10.9842 32.5319 10.9392C32.875 10.6063 33.1919 10.5728 33.5989 10.8287C33.7661 10.9334 33.9405 11.0395 34.0728 11.1805C34.4042 11.5366 34.7298 11.9 35.0278 12.2838C35.4305 12.8013 35.9407 13.1647 36.5338 13.4511C36.794 13.0978 37.1109 13.1371 37.4423 13.2839C37.5586 13.3362 37.672 13.3973 37.7869 13.4511C37.8813 13.4947 37.9787 13.5325 38.0732 13.5775C38.223 13.6473 38.3392 13.6008 38.4483 13.4918C38.5544 13.3842 38.5108 13.2737 38.457 13.172C38.3581 12.9874 38.2535 12.8057 38.1401 12.6312C37.9729 12.3754 37.9497 12.1079 38.0805 11.8375C38.1706 11.65 38.2855 11.4741 38.3945 11.2968C38.5646 11.0206 38.7535 10.7546 38.9076 10.4682C39.2463 9.84166 39.3481 9.17008 39.1722 8.47814C39.0733 8.08711 38.9425 7.69608 38.7637 7.33703C38.095 5.99822 37.1138 4.92978 35.8622 4.11283C34.8418 3.44561 33.7239 3.05603 32.5014 2.99062C32.3924 2.9848 32.2819 2.99062 32.1729 2.99062C33.3416 3.86571 33.862 4.95304 33.4448 6.41832C33.5393 6.37326 33.5916 6.34854 33.6425 6.32238C34.2559 5.99531 34.9203 5.9139 35.6006 5.92117C35.8477 5.92408 35.9509 6.00694 35.9538 6.16538C35.9567 6.33546 35.839 6.41396 35.5788 6.41832C35.4508 6.42123 35.32 6.40814 35.1965 6.42995C34.8432 6.49391 34.4798 6.53316 34.1455 6.65236C33.3983 6.91983 33.1119 7.47076 33.2631 8.24701C33.2791 8.32696 33.3024 8.40546 33.3125 8.48541C33.3314 8.62932 33.282 8.74416 33.1352 8.78195C32.9884 8.81829 32.8837 8.74416 32.8386 8.60606C32.7994 8.48541 32.7645 8.35894 32.7587 8.23247C32.7471 7.97954 32.7543 7.72515 32.7543 7.40099L32.75 7.40244ZM28.703 19.2729C28.7786 19.3718 28.8135 19.4314 28.8615 19.475C29.2481 19.8282 29.7133 19.9314 30.2192 19.882C30.8864 19.8166 31.401 19.4125 31.5856 18.8092C31.6859 18.4792 31.6888 18.1449 31.5987 17.812C31.5202 17.5198 31.3516 17.3032 31.0797 17.1448C30.8835 17.03 30.9213 16.8032 31.1291 16.7102C31.1917 16.6825 31.2643 16.6767 31.3312 16.6593C31.76 16.5401 32.1583 16.3627 32.5203 16.0967C33.314 15.5138 33.362 14.3625 33.0727 13.7622C32.9026 13.4104 32.6584 13.1138 32.311 12.9234C32.0275 12.7693 31.7353 12.765 31.4024 12.9074C31.5652 13.0528 31.6932 13.1531 31.8022 13.2708C32.1743 13.6691 32.1641 14.1241 31.7673 14.5006C31.3254 14.9207 30.8035 15.1315 30.1843 15.0835C29.6915 15.0457 29.2656 14.8451 28.8789 14.5558C28.4646 14.2462 28.1303 13.8625 27.857 13.4235C27.7988 13.3304 27.732 13.2432 27.6578 13.1371C27.1941 14.252 26.8263 14.4672 25.6314 14.3436C25.6562 14.3916 25.6707 14.4352 25.6969 14.4701C25.7812 14.5806 25.8655 14.6925 25.9571 14.7972C26.5211 15.4571 27.2116 15.9688 27.918 16.4616C28.3178 16.7407 28.7234 17.014 29.1071 17.3134C29.2976 17.4602 29.4705 17.6434 29.6101 17.8382C29.8441 18.1638 29.8151 18.5199 29.5665 18.8354C29.363 19.0941 29.1057 19.2569 28.7045 19.2686L28.703 19.2729ZM29.3833 5.62463C29.4531 5.48072 29.4967 5.38768 29.5432 5.2961C29.7264 4.94287 29.9982 4.68412 30.3631 4.52421C31.0303 4.23349 31.8065 4.51259 32.1118 5.15074C32.2136 5.36152 32.1947 5.50397 32.058 5.57956C31.917 5.65661 31.7935 5.59992 31.6728 5.40077C31.6481 5.36152 31.6292 5.31791 31.603 5.28011C31.3734 4.94432 30.9663 4.81494 30.5913 4.97339C30.2134 5.13329 29.9735 5.42112 29.8834 5.82087C29.674 6.75411 30.6044 7.64665 31.5638 7.43733C32.5494 7.22364 33.2486 6.16684 33.0683 5.16527C32.8139 3.75378 31.4024 2.8845 30.0229 3.29297C29.1376 3.55463 28.3163 3.95584 27.5386 4.44863C27.4863 4.48206 27.4471 4.53439 27.3758 4.60271C28.1899 4.68266 28.844 4.99665 29.3833 5.62172V5.62463ZM26.1708 7.60014C26.1708 7.52455 26.1678 7.43151 26.1708 7.33993C26.1955 6.69306 26.6417 6.16684 27.2755 6.03746C27.8119 5.92699 28.4399 6.24534 28.6347 6.72504C28.7001 6.88785 28.6681 7.01868 28.5387 7.08409C28.4007 7.15387 28.2931 7.10735 28.2088 6.9867C28.1957 6.9678 28.1855 6.94599 28.1724 6.9271C27.8773 6.50845 27.4907 6.40524 27.0953 6.64073C26.7042 6.87477 26.5603 7.34284 26.7566 7.76149C26.9179 8.10601 27.1898 8.33278 27.5503 8.44616C28.5446 8.75724 29.5854 7.79929 29.3717 6.76284C29.1391 5.64062 27.998 5.01119 27.0197 5.12457C26.6098 5.17109 26.2783 5.33535 25.9949 5.64789C25.5544 6.1334 25.1692 6.65236 24.8872 7.24399C24.8494 7.32249 24.8305 7.40826 24.8116 7.46349C25.2651 7.50856 25.6998 7.55217 26.1693 7.60014H26.1708ZM24.297 9.3765L24.3653 9.38376C24.4613 9.27038 24.5485 9.14537 24.6561 9.04361C25.1895 8.53919 26.053 8.64386 26.4004 9.24712C26.5124 9.44336 26.508 9.5989 26.3844 9.68467C26.2551 9.7748 26.1242 9.72828 25.9876 9.54076C25.9672 9.51314 25.9513 9.48116 25.9294 9.45499C25.7245 9.20787 25.4294 9.15118 25.1488 9.30527C24.8072 9.49279 24.6735 9.90126 24.8363 10.2661C24.957 10.5336 25.1605 10.7153 25.4323 10.8185C26.1548 11.0933 26.9804 10.5089 27.0415 9.70502C27.1156 8.73834 25.9701 7.65683 24.6779 8.10019C24.6081 8.1249 24.531 8.21939 24.5136 8.29353C24.4307 8.65258 24.3668 9.01599 24.297 9.37795V9.3765ZM24.8581 12.9394C24.97 12.7475 25.0325 12.6094 25.1227 12.4902C25.4585 12.0454 26.1373 11.9654 26.5138 12.3143C26.6214 12.4146 26.6592 12.5295 26.5865 12.6559C26.5095 12.7897 26.3844 12.7969 26.2536 12.7402C26.2115 12.7213 26.1766 12.6865 26.1344 12.6676C25.8466 12.5353 25.5718 12.6399 25.4425 12.9263C25.3189 13.201 25.396 13.5121 25.6373 13.7098C26.0079 14.0151 26.5705 13.9511 26.883 13.5674C27.2479 13.1196 27.2217 12.4626 26.8234 12.0381C26.2245 11.3985 25.1808 11.4363 24.5921 12.1413C24.6706 12.3754 24.7534 12.6239 24.8581 12.9379V12.9394ZM22.2939 10.6513C22.7939 10.9784 23.2649 11.1398 23.8347 11.038C23.8217 10.7546 23.8042 10.4914 23.7984 10.2269C23.7926 9.96232 23.7984 9.69775 23.7984 9.35324C23.3478 9.90562 22.9931 10.4333 22.2953 10.6499L22.2939 10.6513ZM31.683 2.45567C31.6466 2.35101 31.6074 2.26815 31.5885 2.18093C31.5362 1.93381 31.6089 1.72303 31.7935 1.5515C31.8865 1.46428 31.9999 1.41922 32.1045 1.5108C32.2237 1.61401 32.1496 1.7085 32.0711 1.8088C31.9199 2.00213 31.9214 2.13296 32.0537 2.26524C32.1932 2.40479 32.3924 2.41933 32.5639 2.30595C32.795 2.15041 32.8692 1.8088 32.7253 1.56313C32.5435 1.25787 32.1438 1.12849 31.8138 1.26949C31.3457 1.4701 31.1466 1.98469 31.3486 2.50364C31.3966 2.50364 31.4533 2.50946 31.5086 2.50219C31.5623 2.49492 31.6147 2.47457 31.6815 2.45567H31.683ZM35.2488 3.1825C35.3113 3.06039 35.3505 2.96445 35.4072 2.88014C35.5526 2.66064 35.8491 2.53417 36.0701 2.61267C36.1399 2.63738 36.214 2.72605 36.2315 2.80019C36.2591 2.91212 36.1588 2.97172 36.0614 2.96881C35.8695 2.96445 35.7125 2.99788 35.6718 3.21738C35.6267 3.45724 35.8361 3.49648 35.9742 3.5808C36.2155 3.72762 36.4321 3.66075 36.5789 3.40781C36.749 3.11418 36.6399 2.69698 36.3376 2.48765C35.8419 2.14459 35.1078 2.44259 34.9741 3.05167C35.0525 3.08946 35.134 3.12871 35.2488 3.18395V3.1825ZM33.3401 2.58359C33.3823 2.44259 33.4041 2.34083 33.4434 2.24635C33.5335 2.02394 33.7094 1.90183 33.9391 1.85532C34.0539 1.83206 34.1673 1.8684 34.1818 1.9876C34.1905 2.05447 34.1164 2.13878 34.0641 2.20274C34.0394 2.23326 33.9768 2.2289 33.9347 2.2478C33.8155 2.30013 33.7632 2.39753 33.7661 2.52399C33.769 2.65773 33.8693 2.69116 33.9725 2.72024C34.0277 2.73623 34.0844 2.74786 34.1411 2.76239C34.4943 2.86124 34.7211 2.67953 34.7051 2.31176C34.6862 1.8684 34.24 1.53551 33.7951 1.64018C33.3518 1.74484 33.1134 2.04138 33.0203 2.49928C33.125 2.5269 33.2224 2.55307 33.3401 2.58359ZM27.4761 9.00582C27.5067 9.26893 27.5357 9.52477 27.5706 9.82422C27.8206 9.54512 28.0431 9.29655 28.3018 9.00582H27.4747H27.4761ZM24.9759 11.2139C24.7564 10.9726 24.5441 10.74 24.2897 10.458C24.3421 10.836 24.3886 11.1601 24.438 11.5163C24.6473 11.3985 24.8145 11.304 24.9759 11.2139ZM27.168 11.586V10.7546C26.9688 10.9203 26.7871 11.07 26.5879 11.2343C26.7435 11.3404 26.8816 11.4378 27.024 11.5323C27.0502 11.5497 27.0836 11.5555 27.168 11.5875V11.586Z" fill="#313131"/>
<path d="M76.1688 16.4464C76.2807 16.5874 76.3854 16.724 76.4944 16.8578C77.8812 18.56 79.2694 20.2607 80.6576 21.963C81.0036 22.3874 81.0007 22.4325 80.5399 22.7334C80.2303 22.9355 79.9003 23.107 79.5979 23.3192C79.3639 23.4849 79.1618 23.6943 78.9409 23.8803C78.8173 23.985 78.6879 24.0853 78.5557 24.1798C78.3347 24.3368 78.2286 24.3135 78.0687 24.0868C78.0222 24.0199 77.9815 23.9501 77.9364 23.8818C76.727 21.995 75.5175 20.1067 74.3081 18.2198C74.2456 18.1224 74.1787 18.0279 74.106 17.9218C74.0086 17.9349 73.9171 17.9393 73.8284 17.9582C71.597 18.4568 69.3657 18.9583 67.1329 19.4511C66.9352 19.4947 66.8 19.5761 66.691 19.7462C66.4889 20.0631 66.2258 20.3262 65.9016 20.5209C65.342 20.8567 64.8361 20.7114 64.6021 20.1052C64.4829 19.797 64.4509 19.454 64.3913 19.1254C64.3695 19.0077 64.4029 18.887 64.5323 18.8362C64.6704 18.7809 64.7882 18.826 64.8623 18.951C65.1036 19.3609 65.3246 19.3115 65.5848 18.9045C65.8086 18.5542 66.0165 18.1835 66.156 17.7939C66.5064 16.8112 66.8305 15.8169 67.1343 14.8183C67.4454 13.7949 67.7594 12.7759 68.2493 11.8209C68.2696 11.7802 68.2827 11.7365 68.2973 11.6958C67.3945 10.9647 67.6795 9.90931 68.6549 9.73923C68.6171 8.79872 69.1927 8.35972 70.0256 8.73186C70.2524 8.33646 70.5897 8.10097 71.0723 8.17802C71.5374 8.25215 71.7831 8.58213 71.9532 9.00078C72.9838 8.83361 74.0145 8.80308 75.0495 8.83361C75.9667 8.85978 76.8854 8.88885 77.8027 8.87722C78.358 8.86995 78.9133 8.79727 79.4656 8.72895C79.6561 8.70569 79.848 8.62574 80.0224 8.53997C80.2186 8.44258 80.239 8.33501 80.1343 8.14022C80.0965 8.06899 80.0209 8.01085 80.0035 7.93671C79.9817 7.84368 79.9657 7.71285 80.0137 7.64889C80.0602 7.58638 80.207 7.53986 80.2841 7.56603C80.7172 7.7143 81.1214 7.92217 81.4034 8.29867C81.6563 8.63592 81.62 9.01968 81.3147 9.34239C81.0617 9.60841 80.7492 9.79302 80.4033 9.90204C80.2128 9.96164 80.0864 10.0634 79.9831 10.232C78.7606 12.2206 77.5337 14.2063 76.3083 16.1934C76.2603 16.2705 76.2211 16.3533 76.1702 16.4493L76.1688 16.4464ZM72.1582 11.3324C72.4358 11.8281 75.6425 15.8547 75.9391 16.0742C77.1514 14.1104 78.3623 12.1479 79.5936 10.1521C79.4962 10.1521 79.4511 10.1477 79.409 10.1521C78.1763 10.3047 76.9421 10.4515 75.7109 10.6158C74.7791 10.7408 73.8502 10.8818 72.9228 11.0344C72.6538 11.078 72.3791 11.1478 72.1582 11.3324ZM73.8386 17.5744C73.6452 17.1151 70.8019 12.8253 70.469 12.4997C70.3018 12.7265 70.1129 12.9329 69.982 13.1713C69.6274 13.824 69.2843 14.4825 68.963 15.1526C68.3612 16.4086 67.7769 17.6733 67.1881 18.9365C67.175 18.9626 67.178 18.9961 67.1678 19.0644C69.4035 18.5643 71.6174 18.0701 73.8386 17.5744ZM65.0454 19.752C65.1341 20.1939 65.3347 20.3058 65.6618 20.066C65.8915 19.8973 66.1168 19.6924 66.2709 19.4554C66.5674 18.999 66.8393 18.5222 67.0733 18.0308C67.6446 16.8374 68.1781 15.6251 68.7479 14.4316C69.0226 13.856 69.3323 13.2963 69.6564 12.7468C69.796 12.5113 69.9879 12.2948 70.1957 12.1145C70.5039 11.847 70.7161 11.8848 70.9429 12.2163C71.4502 12.9533 71.9605 13.6873 72.446 14.4389C74.3648 17.4029 76.2763 20.3712 78.1908 23.3381C78.2562 23.4399 78.326 23.5402 78.4059 23.6608C78.6095 23.5009 78.7781 23.3657 78.9569 23.2262C78.8726 23.1012 78.81 23.0052 78.7446 22.9107C77.9262 21.7391 77.1107 20.5675 76.2909 19.3973C74.359 16.6383 72.4692 13.8472 70.4065 11.1827C70.3338 11.0897 70.2568 10.9981 70.1608 10.8803C69.8905 11.4923 69.4573 11.7947 68.8278 11.8223C68.7508 11.9677 68.6578 12.1029 68.5996 12.2526C68.3133 12.9998 68.0138 13.7426 67.7609 14.5014C67.4367 15.4695 67.1634 16.4536 66.8436 17.4232C66.6474 18.0178 66.4075 18.6007 66.0557 19.1254C65.8159 19.4845 65.5281 19.7796 65.0454 19.7534V19.752ZM70.7321 10.5489C73.5769 14.7398 76.7037 18.6486 79.6793 22.7043C79.8901 22.5604 80.0689 22.4398 80.2739 22.3002C80.1808 22.1839 80.1038 22.0851 80.0253 21.9891C78.0411 19.5441 76.051 17.1034 74.0755 14.6511C73.2731 13.6568 72.4983 12.6393 71.7177 11.6275C71.4967 11.3412 71.5345 11.1376 71.8282 10.9254C71.9299 10.8513 72.0448 10.783 72.164 10.7452C72.4721 10.6449 72.7818 10.5242 73.1001 10.4806C74.561 10.28 76.0263 10.1128 77.4872 9.91222C78.326 9.79738 79.1604 9.6462 79.9933 9.49793C80.3044 9.44269 80.5879 9.29878 80.8335 9.09527C81.1635 8.82344 81.133 8.61556 80.7361 8.4106C80.5399 8.84233 80.3727 8.99206 79.9134 9.13597C79.8029 9.17086 79.6895 9.19702 79.5761 9.21883C78.6923 9.39472 77.7983 9.4049 76.9029 9.39327C75.9391 9.38164 74.9739 9.3453 74.0101 9.33367C73.324 9.3264 72.6408 9.37292 71.9517 9.52555C71.7657 10.091 71.3645 10.4239 70.7321 10.5475V10.5489ZM69.4994 8.95136C69.3235 8.98188 69.168 9.06474 69.0677 9.23918C68.9718 9.4049 69.0125 9.5459 69.1215 9.68545C69.1927 9.77558 69.2596 9.87006 69.325 9.966C69.4151 10.0968 69.5212 10.2029 69.6942 10.1666C69.8948 10.1259 70.0634 10.0285 70.1405 9.82355C70.235 9.5677 69.7873 8.94554 69.4994 8.95136ZM70.437 10.123C70.9705 10.1986 71.3964 9.95438 71.5505 9.51247C71.6901 9.11271 71.4517 8.65481 71.0505 8.54724C70.831 8.4891 70.5751 8.5894 70.4443 8.78855C70.3295 8.96299 70.3367 9.15196 70.4661 9.30314C70.5853 9.44414 70.7685 9.47467 70.8993 9.37873C71.0272 9.2857 71.0345 9.18394 70.8949 9.00078C70.8223 8.90484 70.7874 8.81326 70.8688 8.72313C70.9705 8.6112 71.0795 8.6679 71.1755 8.74349C71.5244 9.01968 71.4182 9.59387 70.9807 9.75813C70.8542 9.8061 70.7118 9.80756 70.5577 9.83372C70.5446 9.85843 70.5184 9.89623 70.501 9.93839C70.4792 9.98926 70.4632 10.0445 70.437 10.123ZM69.4733 10.6739C69.2901 11.0373 69.1476 11.1624 68.8903 11.2016C68.5894 11.2481 68.2682 11.0243 68.258 10.7466C68.2551 10.6812 68.3016 10.578 68.354 10.5547C68.4077 10.53 68.4993 10.5736 68.5691 10.6012C68.5924 10.61 68.5996 10.6608 68.6156 10.6914C68.6781 10.8135 68.7755 10.8556 68.9049 10.8091C69.0357 10.7612 69.1128 10.61 69.0837 10.469C69.0386 10.2524 68.7988 10.1012 68.5793 10.1492C68.2711 10.2175 68.0705 10.5271 68.1374 10.8353C68.2304 11.2656 68.6679 11.5287 69.0953 11.4109C69.4049 11.3252 69.6288 11.1391 69.7596 10.844C69.7713 10.8164 69.7654 10.78 69.7669 10.7452C69.6695 10.7219 69.5823 10.7001 69.4747 10.6739H69.4733Z" fill="#313131"/>
<path d="M47.9855 71.6091V74.983C47.5 75.0281 47.0566 75.0688 46.59 75.1124V69.0332C46.7339 69.0158 46.808 69.1364 46.8996 69.2091C48.1396 70.2078 49.3752 71.2108 50.6137 72.2109C50.7183 72.2966 50.8274 72.3781 51.0047 72.5162C51.0163 71.3387 51.0047 70.2426 51.012 69.1132C51.4786 69.0652 51.9234 69.0201 52.3915 68.9707V75.1095C51.9888 74.8245 51.6443 74.5251 51.2867 74.2445C50.9204 73.9582 50.5599 73.6645 50.1979 73.3738C49.8447 73.0903 49.49 72.8069 49.1368 72.5249C48.7777 72.237 48.4172 71.9507 47.9884 71.6091H47.9855Z" fill="#313131"/>
<path d="M64.7622 68.9688C64.7622 69.1403 64.7622 69.2667 64.7622 69.3918C64.7622 70.53 64.7753 71.6682 64.7578 72.8049C64.7448 73.6815 65.1416 74.0536 66.0545 74.0376C66.7813 74.0245 67.1331 73.6975 67.1505 72.9721C67.1782 71.8353 67.1636 70.6971 67.1665 69.5589C67.1665 69.4208 67.1665 69.2842 67.1665 69.1156C67.639 69.0676 68.0852 69.0211 68.5562 68.9731C68.5664 69.0821 68.5824 69.1708 68.5824 69.2595C68.5838 70.5605 68.5824 71.8601 68.5824 73.1611C68.5824 73.7483 68.3367 74.2135 67.8716 74.5653C67.5111 74.8386 67.0997 74.9927 66.6592 75.0595C65.9615 75.1642 65.2681 75.1584 64.6023 74.8836C63.8217 74.5595 63.3667 73.9882 63.358 73.1247C63.3463 71.8368 63.3551 70.5474 63.3551 69.258C63.3551 69.2246 63.3667 69.1912 63.3798 69.1141C63.8159 69.0691 64.2607 69.0225 64.7607 68.9702L64.7622 68.9688Z" fill="#313131"/>
<path d="M42.7568 71.3675V72.4475H40.569V73.9041C41.0705 73.907 41.5778 73.9099 42.0837 73.9099C42.5823 73.9099 43.0809 73.9099 43.642 73.9099C43.4908 74.2806 43.3557 74.6164 43.2176 74.9551H39.1473V69.123H43.0707C43.1449 69.4588 43.2205 69.8034 43.3048 70.19H40.553C40.5341 70.5883 40.5327 70.9517 40.5588 71.366H42.7538L42.7568 71.3675Z" fill="#313131"/>
<path d="M59.8589 69.1444C59.9301 69.4729 60.0028 69.8087 60.0856 70.1896H57.3324V71.3598H59.5173V72.4427C58.8006 72.4602 58.0767 72.4398 57.331 72.4544V73.892H60.4055C60.2906 74.2889 60.1365 74.6159 59.9853 74.9503H55.9268V69.1604C56.1652 69.0906 59.417 69.0717 59.8589 69.1415V69.1444Z" fill="#313131"/>
<path d="M84.1262 69.1328C84.2003 69.4788 84.273 69.8146 84.3559 70.1998H81.6012V71.3554C82.3309 71.3831 83.0577 71.3482 83.786 71.3758V72.45H81.6026V73.8979H84.6975C84.5419 74.2787 84.4082 74.6058 84.2672 74.9518H80.2289C80.1548 74.7134 80.1243 69.8378 80.1955 69.1328H84.1247H84.1262Z" fill="#313131"/>
<path d="M14.37 75.1424C13.3117 73.1073 12.2825 71.1274 11.2344 69.1127C11.7607 69.0618 12.2331 69.0167 12.7361 68.9688C13.271 70.1782 13.8059 71.3833 14.37 72.6567C14.9892 71.3891 15.5794 70.1855 16.1739 68.9688C16.6391 69.0153 17.0883 69.0603 17.5912 69.1098C16.5155 71.1245 15.4573 73.1044 14.37 75.1395V75.1424Z" fill="#313131"/>
<path d="M74.3589 72.5714C74.9433 71.3765 75.5262 70.1816 76.1178 68.9707C76.5801 69.0158 77.0278 69.0594 77.5366 69.1103C76.4638 71.1192 75.4085 73.0947 74.3153 75.1429C73.2542 73.1049 72.2264 71.1279 71.1783 69.1117C71.7089 69.0623 72.1901 69.0172 72.6843 68.9707C73.2207 70.183 73.7484 71.3765 74.2761 72.5714C74.3037 72.5714 74.3313 72.5714 74.3575 72.5714H74.3589Z" fill="#313131"/>
<path d="M25.3814 74.9539V69.1146C25.8219 69.0681 26.2667 69.0216 26.7537 68.9707V73.8928H29.4516C29.3252 74.2823 29.2161 74.6167 29.1071 74.9525H25.3814V74.9539Z" fill="#313131"/>
<path d="M35.9987 74.9568H32.2774V69.1132C32.7208 69.0666 33.167 69.0216 33.6482 68.9707V73.8971C34.5451 73.9276 35.41 73.8971 36.3084 73.916C36.2473 74.2896 36.1005 74.6109 35.9973 74.9568H35.9987Z" fill="#313131"/>
<path d="M21.7066 68.9702V74.9767C21.2633 75.0261 20.8184 75.0261 20.378 75.0348C20.3039 74.7645 20.2777 69.761 20.346 69.1112C20.7806 69.0661 21.2255 69.0196 21.7066 68.9688V68.9702Z" fill="#313131"/>
<path d="M19.1727 78.1516C19.193 77.7533 19.209 77.6995 19.5172 77.6443C19.869 77.5832 20.228 77.5498 20.5856 77.5469C20.7615 77.5469 20.949 77.621 21.1147 77.6966C21.3997 77.8289 21.5654 78.0687 21.5683 78.3856C21.5741 79.2317 21.5683 80.0791 21.5639 80.9252C21.5639 80.947 21.5479 80.9673 21.5319 81.0022C21.4171 81.0255 21.295 81.0516 21.1525 81.0807C21.1293 80.9673 21.1089 80.8685 21.0871 80.7638C21.0508 80.7798 21.0173 80.7871 20.9912 80.806C20.4344 81.1999 19.6756 81.1868 19.1421 80.774C18.7337 80.4585 18.6348 80.0341 18.7482 79.5602C18.8674 79.0616 19.2177 78.7738 19.7076 78.6589C20.0943 78.5688 20.4679 78.6153 20.8196 78.8086C20.8981 78.8523 20.9766 78.8944 21.1118 78.9671C21.1118 78.7476 21.1191 78.579 21.1104 78.4118C21.1002 78.2112 20.9519 78.108 20.792 78.0324C20.449 77.8725 20.0928 77.8914 19.7367 77.9859C19.5506 78.0353 19.366 78.0934 19.1741 78.1487L19.1727 78.1516ZM20.1655 80.7333C20.1699 80.7217 20.1742 80.7115 20.1786 80.6998C20.2702 80.6897 20.3647 80.6882 20.4548 80.6679C20.8066 80.5894 21.0653 80.3161 21.1089 79.9832C21.1569 79.6169 21.0057 79.3058 20.6961 79.1328C20.321 78.9235 19.7817 78.9729 19.4503 79.2462C19.004 79.614 19.0447 80.2492 19.5477 80.5254C19.7352 80.6286 19.9576 80.6664 20.1641 80.7333H20.1655Z" fill="#313131"/>
<path d="M59.9129 78.3178C58.9215 78.8571 57.9751 79.3732 56.9896 79.9096C57.3152 80.3994 57.7338 80.6611 58.2906 80.6931C58.8401 80.7251 59.3038 80.4896 59.7457 80.1901C59.8591 80.5782 59.8402 80.6451 59.5218 80.805C58.8924 81.1219 58.2412 81.2018 57.5681 80.9475C56.8311 80.6698 56.3819 80.0069 56.4008 79.2205C56.4183 78.4908 56.8733 77.8919 57.6205 77.652C58.2441 77.4514 58.8575 77.4674 59.4302 77.8294C59.6163 77.9471 59.7777 78.091 59.9143 78.3193L59.9129 78.3178ZM59.202 78.2248C58.7092 77.8076 57.9228 77.8265 57.369 78.2408C56.9358 78.5649 56.7425 79.1086 56.9329 79.5171C57.6859 79.0882 58.4374 78.6594 59.202 78.2248Z" fill="#313131"/>
<path d="M84.0287 78.3178C83.0417 78.8557 82.0895 79.3761 81.1098 79.9096C81.4485 80.4096 81.873 80.6655 82.4326 80.6931C82.9806 80.7207 83.4342 80.4605 83.8863 80.1887C83.9706 80.6059 83.9618 80.6437 83.6319 80.8079C82.9399 81.1524 82.2335 81.2106 81.5226 80.8719C80.8539 80.5535 80.4818 79.9125 80.5327 79.1435C80.5821 78.4021 80.9979 77.9239 81.6767 77.6739C82.2785 77.4514 82.8818 77.4515 83.4589 77.7713C83.6827 77.8948 83.8804 78.0518 84.0302 78.3178H84.0287ZM83.3208 78.2233C82.8382 77.809 82.0401 77.825 81.4921 78.235C81.0575 78.5591 80.8598 79.1115 81.0516 79.5156C81.8061 79.0868 82.5576 78.658 83.3208 78.2233Z" fill="#313131"/>
<path d="M45.2485 81.0008C45.0988 81.0313 44.9868 81.0546 44.8531 81.0822C44.8313 80.9732 44.8124 80.8743 44.792 80.7755C44.7702 80.7769 44.7412 80.7711 44.7266 80.7828C44.2876 81.1389 43.7978 81.1665 43.2803 81.0052C42.7032 80.8249 42.3543 80.3568 42.3921 79.8219C42.4342 79.2288 42.834 78.7753 43.414 78.6575C43.805 78.5776 44.1757 78.627 44.526 78.8189C44.6045 78.8625 44.683 78.9046 44.7862 78.9599C44.7993 78.8887 44.8139 78.848 44.8153 78.8058C44.8313 78.1822 44.6162 77.938 43.9882 77.9278C43.7382 77.9234 43.4852 77.9947 43.2366 78.0426C43.1131 78.0673 42.9953 78.1182 42.8703 78.1589C42.8674 77.7766 42.9023 77.717 43.2177 77.6371C43.6727 77.5222 44.1321 77.4655 44.5914 77.608C45.0624 77.7534 45.2456 78.0077 45.247 78.5034C45.2499 79.3262 45.247 80.149 45.247 81.0023L45.2485 81.0008ZM43.8617 80.7333L43.8748 80.6999C43.9664 80.6897 44.0623 80.6897 44.151 80.6665C44.4926 80.5749 44.7295 80.367 44.7993 80.0138C44.8647 79.6794 44.7572 79.3931 44.4766 79.1896C44.071 78.8945 43.4125 78.9584 43.0695 79.3204C42.7032 79.7071 42.7773 80.2769 43.2468 80.5269C43.4358 80.6272 43.6567 80.6665 43.8632 80.7348L43.8617 80.7333Z" fill="#313131"/>
<path d="M67.6769 81.0042C67.5286 81.0173 67.4167 81.026 67.2626 81.0391C67.2539 80.9024 67.2393 80.7818 67.2379 80.6597C67.235 80.0448 67.2379 79.4299 67.2364 78.8136C67.2335 78.1507 66.9428 77.8571 66.2727 77.8818C66.059 77.889 65.8366 77.9515 65.6403 78.0388C65.2915 78.1928 65.1127 78.4792 65.1127 78.8673C65.1127 79.4473 65.1127 80.0274 65.1127 80.6088C65.1127 80.7353 65.1127 80.8603 65.1127 81.0071C64.96 81.0187 64.8394 81.0275 64.6984 81.0376V77.6187C64.8161 77.5896 64.9353 77.5591 65.0865 77.5213C65.1025 77.6913 65.117 77.8338 65.133 78.0053C65.1897 77.9733 65.2333 77.9588 65.2624 77.9312C65.7726 77.4486 66.3686 77.4413 66.9864 77.6405C67.437 77.7858 67.658 78.142 67.6711 78.5955C67.6929 79.3834 67.6769 80.1713 67.6769 81.0028V81.0042Z" fill="#313131"/>
<path d="M72.7426 77.6091C72.8719 77.5815 72.9824 77.5582 73.1176 77.5306C73.1379 77.6949 73.1539 77.8373 73.1757 78.0074C73.2353 77.9711 73.2775 77.9536 73.308 77.926C73.7964 77.4667 74.3721 77.4492 74.9695 77.6236C75.4027 77.7487 75.6789 78.0597 75.6949 78.506C75.724 79.3288 75.7036 80.1515 75.7036 80.999C75.5699 81.015 75.4492 81.031 75.3039 81.0484C75.2966 80.9249 75.2835 80.8246 75.2835 80.7228C75.2821 80.073 75.285 79.4218 75.2821 78.772C75.2792 78.1804 75.0059 77.894 74.4084 77.8853C74.2049 77.8824 73.9883 77.9158 73.7964 77.9856C73.3734 78.1397 73.1452 78.4493 73.1481 78.9159C73.1525 79.4741 73.1481 80.0309 73.1481 80.5891C73.1481 80.7156 73.1481 80.842 73.1481 81.0063C73.0086 81.0208 72.8879 81.0325 72.7426 81.047V77.6135V77.6091Z" fill="#313131"/>
<path d="M52.1213 77.5453C52.0849 77.7895 51.989 77.9015 51.7419 77.9305C51.1837 77.9945 50.7665 78.5207 50.7403 79.1763C50.7214 79.6502 50.7345 80.127 50.7331 80.6024C50.7331 80.7288 50.7331 80.8553 50.7331 80.9948C50.5906 81.0254 50.4714 81.0515 50.3522 81.0777C50.2737 80.816 50.2475 78.1995 50.313 77.6296C50.3609 77.6107 50.4133 77.5846 50.4685 77.5715C50.5354 77.5555 50.6037 77.5511 50.7142 77.5352C50.7258 77.7488 50.736 77.9465 50.7505 78.2227C51.1023 77.6805 51.5515 77.4974 52.1213 77.5439V77.5453Z" fill="#313131"/>
<path d="M13.7112 80.9986C13.5819 81.0291 13.4612 81.0553 13.3144 81.0902V76.1754C13.4481 76.1579 13.5673 76.1419 13.7112 76.123V80.9986Z" fill="#313131"/>
<path d="M26.5053 79.462V79.1523H28.4067C28.4169 79.2439 28.4285 79.3399 28.443 79.462H26.5053Z" fill="#313131"/>
<path d="M36.1744 9.9193C36.1104 9.71143 36.0232 9.52827 36.0043 9.33784C35.984 9.14742 36.0174 8.94827 36.0552 8.75784C36.0843 8.61538 36.2035 8.54997 36.3488 8.57904C36.5044 8.60957 36.5611 8.73167 36.5262 8.86832C36.3794 9.43815 36.7006 9.79284 37.0858 10.1199C37.3766 10.3685 37.3795 10.3801 37.1396 10.6956C37.1193 10.7232 37.1047 10.7552 37.0858 10.7842C36.8649 11.1229 36.5349 11.2087 36.2311 11.0081C35.9127 10.7973 35.8313 10.3743 36.0523 10.0618C36.0915 10.0065 36.141 9.95855 36.1744 9.91785V9.9193Z" fill="#313131"/>
</svg>
